<?xml version="1.0" encoding="UTF-8"?>
<!DOCTYPE svg PUBLIC "-//W3C//DTD SVG 1.1//EN" "http://www.w3.org/Graphics/SVG/1.1/DTD/svg11.dtd">
<svg xmlns="http://www.w3.org/2000/svg" version="1.1" width="314px" height="313px" style="shape-rendering:geometricPrecision; text-rendering:geometricPrecision; image-rendering:optimizeQuality; fill-rule:evenodd; clip-rule:evenodd" xmlns:xlink="http://www.w3.org/1999/xlink">
<g><path style="opacity:0.147" fill="#1e1e1b" d="M 190.5,7.5 C 179.714,6.07142 168.88,5.07142 158,4.5C 153.812,4.6063 149.645,4.93964 145.5,5.5C 144.006,5.70919 142.839,6.37586 142,7.5C 139.126,6.95361 135.959,6.62028 132.5,6.5C 151.898,2.39165 171.232,2.72498 190.5,7.5 Z"/></g>
<g><path style="opacity:0.998" fill="#020101" d="M 190.5,7.5 C 242.265,20.4267 277.098,52.0934 295,102.5C 297.537,110.688 299.371,119.021 300.5,127.5C 300.41,140.492 300.41,153.492 300.5,166.5C 287.221,230.278 248.888,269.444 185.5,284C 122.971,292.286 74.1376,270.453 39,218.5C 30.0974,203.626 24.2641,187.626 21.5,170.5C 20.3923,158.694 19.3923,147.027 18.5,135.5C 19.3287,125.508 21.3287,115.842 24.5,106.5C 26.411,102.767 27.7444,98.767 28.5,94.5C 34.0503,77.0495 43.3837,62.0495 56.5,49.5C 59.5,47.1667 62.1667,44.5 64.5,41.5C 67.4274,40.2427 69.7607,38.2427 71.5,35.5C 82.3704,25.8906 94.7037,18.5573 108.5,13.5C 112.533,12.9751 116.2,11.6418 119.5,9.5C 123.659,7.8674 127.992,6.8674 132.5,6.5C 135.959,6.62028 139.126,6.95361 142,7.5C 142.839,6.37586 144.006,5.70919 145.5,5.5C 149.645,4.93964 153.812,4.6063 158,4.5C 168.88,5.07142 179.714,6.07142 190.5,7.5 Z"/></g>
<g><path style="opacity:0.31" fill="#2a2a28" d="M 119.5,9.5 C 116.2,11.6418 112.533,12.9751 108.5,13.5C 111.797,11.3987 115.463,10.0653 119.5,9.5 Z"/></g>
<g><path style="opacity:0.596" fill="#2d2d2d" d="M 71.5,35.5 C 69.7607,38.2427 67.4274,40.2427 64.5,41.5C 66.2393,38.7573 68.5726,36.7573 71.5,35.5 Z"/></g>
<g><path style="opacity:0.427" fill="#3e3e3e" d="M 64.5,41.5 C 62.1667,44.5 59.5,47.1667 56.5,49.5C 58.1667,45.8333 60.8333,43.1667 64.5,41.5 Z"/></g>
<g><path style="opacity:1" fill="#b2977b" d="M 205.5,56.5 C 205.5,57.1667 205.5,57.8333 205.5,58.5C 203.833,58.5 202.167,58.5 200.5,58.5C 199.5,57.1667 198.5,57.1667 197.5,58.5C 195.712,58.7852 194.045,58.4519 192.5,57.5C 196.783,56.5078 201.116,56.1744 205.5,56.5 Z"/></g>
<g><path style="opacity:1" fill="#302418" d="M 227.5,56.5 C 229.117,57.038 230.784,57.3713 232.5,57.5C 232.5,58.5 232.5,59.5 232.5,60.5C 230.804,59.1655 229.138,57.8322 227.5,56.5 Z"/></g>
<g><path style="opacity:1" fill="#0e170b" d="M 76.5,56.5 C 75.8902,57.391 75.5569,58.391 75.5,59.5C 73.0332,62.3372 71.3666,65.6705 70.5,69.5C 70.4017,72.2476 71.4017,72.9143 73.5,71.5C 72.8166,73.1765 71.4832,73.8432 69.5,73.5C 69.2679,67.6941 70.7679,62.3608 74,57.5C 74.6708,56.7476 75.5041,56.4142 76.5,56.5 Z"/></g>
<g><path style="opacity:1" fill="#607b58" d="M 99.5,56.5 C 102.338,58.3059 102.005,59.3059 98.5,59.5C 95.2475,57.8532 92.4142,58.5198 90,61.5C 89.2109,63.7116 89.3775,65.7116 90.5,67.5C 91.3382,67.8417 91.6716,68.5084 91.5,69.5C 93.4551,71.3258 95.7884,71.8258 98.5,71C 100.013,68.5459 99.3463,66.8793 96.5,66C 98.1341,65.5065 99.8008,65.3398 101.5,65.5C 101.756,67.7925 101.423,69.9592 100.5,72C 96.2381,72.9166 92.2381,72.4166 88.5,70.5C 87.621,68.772 86.9543,66.9386 86.5,65C 87.5968,62.3954 88.9302,59.8954 90.5,57.5C 93.2869,56.5233 96.2869,56.19 99.5,56.5 Z"/></g>
<g><path style="opacity:1" fill="#506746" d="M 126.5,56.5 C 129.167,56.5 131.833,56.5 134.5,56.5C 135.141,57.4822 135.807,58.4822 136.5,59.5C 136,59.8333 135.5,60.1667 135,60.5C 132.901,59.7135 130.734,59.3801 128.5,59.5C 128.281,60.675 128.614,61.675 129.5,62.5C 135.381,62.8751 137.548,65.8751 136,71.5C 135.005,72.0659 134.172,72.7326 133.5,73.5C 130.833,73.5 128.167,73.5 125.5,73.5C 125.238,72.0222 125.571,70.6888 126.5,69.5C 128.747,70.3742 131.08,70.7076 133.5,70.5C 133.737,69.209 133.404,68.209 132.5,67.5C 130.355,66.0216 128.021,64.6882 125.5,63.5C 124.154,60.9004 124.488,58.5671 126.5,56.5 Z"/></g>
<g><path style="opacity:1" fill="#0b1908" d="M 134.5,56.5 C 136.17,56.7512 137.67,57.4178 139,58.5C 140.011,57.6634 141.178,57.33 142.5,57.5C 139.769,60.9275 138.769,64.9275 139.5,69.5C 137.974,70.1047 136.974,71.2714 136.5,73C 135.552,73.4828 134.552,73.6495 133.5,73.5C 134.172,72.7326 135.005,72.0659 136,71.5C 137.548,65.8751 135.381,62.8751 129.5,62.5C 128.614,61.675 128.281,60.675 128.5,59.5C 130.734,59.3801 132.901,59.7135 135,60.5C 135.5,60.1667 136,59.8333 136.5,59.5C 135.807,58.4822 135.141,57.4822 134.5,56.5 Z"/></g>
<g><path style="opacity:1" fill="#1a1e0c" d="M 160.5,57.5 C 160.5,62.5 160.5,67.5 160.5,72.5C 159.849,71.9094 159.182,71.2427 158.5,70.5C 157.06,71.9524 155.394,72.9524 153.5,73.5C 155.808,71.0527 157.474,68.2193 158.5,65C 158.609,62.2884 157.609,60.1217 155.5,58.5C 157.216,58.3713 158.883,58.038 160.5,57.5 Z"/></g>
<g><path style="opacity:1" fill="#020302" d="M 145.5,60.5 C 150.044,60.4465 152.377,62.4465 152.5,66.5C 150.003,69.8687 147.336,70.2021 144.5,67.5C 145.04,66.2519 145.707,65.0852 146.5,64C 145.244,63.5831 144.577,62.7498 144.5,61.5C 144.5,60.8333 144.833,60.5 145.5,60.5 Z"/></g>
<g><path style="opacity:1" fill="#c7a783" d="M 235.5,56.5 C 236.959,56.4326 238.292,56.7659 239.5,57.5C 241.783,60.9563 244.283,64.2896 247,67.5C 247.499,63.8484 247.665,60.1817 247.5,56.5C 248.833,56.5 250.167,56.5 251.5,56.5C 251.666,61.8437 251.499,67.1771 251,72.5C 249.989,73.3366 248.822,73.67 247.5,73.5C 246.92,71.2512 245.587,69.5846 243.5,68.5C 242.925,66.5887 241.925,64.922 240.5,63.5C 239.791,62.596 238.791,62.2627 237.5,62.5C 238.069,66.3293 237.402,69.6627 235.5,72.5C 235.5,67.1667 235.5,61.8333 235.5,56.5 Z"/></g>
<g><path style="opacity:1" fill="#281a12" d="M 247.5,56.5 C 247.665,60.1817 247.499,63.8484 247,67.5C 244.283,64.2896 241.783,60.9563 239.5,57.5C 240.583,57.5394 241.583,57.8728 242.5,58.5C 243.148,60.1492 244.148,61.4825 245.5,62.5C 246.169,60.3691 246.835,58.3691 247.5,56.5 Z"/></g>
<g><path style="opacity:1" fill="#5d7a53" d="M 76.5,56.5 C 77.791,56.2627 78.791,56.596 79.5,57.5C 80.4425,62.5032 82.4425,67.0032 85.5,71C 85.1667,71.5 84.8333,72 84.5,72.5C 83.4822,71.8075 82.4822,71.1408 81.5,70.5C 78.6146,70.1936 75.9479,70.5269 73.5,71.5C 71.4017,72.9143 70.4017,72.2476 70.5,69.5C 72.9668,66.6628 74.6334,63.3295 75.5,59.5C 75.5569,58.391 75.8902,57.391 76.5,56.5 Z"/></g>
<g><path style="opacity:1" fill="#1f381a" d="M 98.5,59.5 C 92.8333,59.1667 90.1667,61.8333 90.5,67.5C 89.3775,65.7116 89.2109,63.7116 90,61.5C 92.4142,58.5198 95.2475,57.8532 98.5,59.5 Z"/></g>
<g><path style="opacity:1" fill="#030a02" d="M 98.5,59.5 C 99.2899,60.7942 100.29,61.9609 101.5,63C 99.2922,63.1909 97.2922,63.6909 95.5,64.5C 95.2965,66.3904 95.9632,67.8904 97.5,69C 95.5273,69.4955 93.5273,69.6621 91.5,69.5C 91.6716,68.5084 91.3382,67.8417 90.5,67.5C 90.1667,61.8333 92.8333,59.1667 98.5,59.5 Z"/></g>
<g><path style="opacity:1" fill="#0f1a0c" d="M 112.5,56.5 C 110.5,56.5 108.5,56.5 106.5,56.5C 105.508,56.3284 104.842,56.6618 104.5,57.5C 103.833,60.1667 103.167,62.8333 102.5,65.5C 100.393,64.5318 98.0593,64.1984 95.5,64.5C 97.2922,63.6909 99.2922,63.1909 101.5,63C 100.29,61.9609 99.2899,60.7942 98.5,59.5C 102.005,59.3059 102.338,58.3059 99.5,56.5C 103.98,55.3376 108.313,55.3376 112.5,56.5 Z"/></g>
<g><path style="opacity:1" fill="#071403" d="M 145.5,60.5 C 145.5,60.1667 145.5,59.8333 145.5,59.5C 153,58.1657 155.833,61.1657 154,68.5C 150.168,71.1253 146.335,71.1253 142.5,68.5C 142.5,68.1667 142.5,67.8333 142.5,67.5C 142.259,65.1016 142.926,63.1016 144.5,61.5C 144.577,62.7498 145.244,63.5831 146.5,64C 145.707,65.0852 145.04,66.2519 144.5,67.5C 147.336,70.2021 150.003,69.8687 152.5,66.5C 152.377,62.4465 150.044,60.4465 145.5,60.5 Z"/></g>
<g><path style="opacity:1" fill="#917d60" d="M 163.5,56.5 C 163.5,56.8333 163.5,57.1667 163.5,57.5C 161.554,62.3958 160.887,67.7291 161.5,73.5C 161.167,73.5 160.833,73.5 160.5,73.5C 160.5,73.1667 160.5,72.8333 160.5,72.5C 160.5,67.5 160.5,62.5 160.5,57.5C 161.209,56.596 162.209,56.2627 163.5,56.5 Z"/></g>
<g><path style="opacity:1" fill="#647c59" d="M 151.5,56.5 C 151.611,57.1174 151.944,57.6174 152.5,58C 149.964,58.1862 147.631,58.6862 145.5,59.5C 143.589,59.5743 142.422,60.5743 142,62.5C 141.22,64.3869 141.387,66.0536 142.5,67.5C 142.5,67.8333 142.5,68.1667 142.5,68.5C 142.158,69.3382 141.492,69.6716 140.5,69.5C 140.167,69.5 139.833,69.5 139.5,69.5C 138.769,64.9275 139.769,60.9275 142.5,57.5C 145.391,56.5975 148.391,56.2641 151.5,56.5 Z"/></g>
<g><path style="opacity:1" fill="#dcbe9b" d="M 197.5,58.5 C 198.5,57.1667 199.5,57.1667 200.5,58.5C 200.5,58.8333 200.5,59.1667 200.5,59.5C 199.675,63.6472 199.175,67.9805 199,72.5C 198.826,67.6486 198.326,62.9819 197.5,58.5 Z"/></g>
<g><path style="opacity:1" fill="#546d4e" d="M 121.5,56.5 C 122.117,62.5982 121.45,68.2649 119.5,73.5C 119.167,73.5 118.833,73.5 118.5,73.5C 118.5,68.1667 118.5,62.8333 118.5,57.5C 119.209,56.596 120.209,56.2627 121.5,56.5 Z"/></g>
<g><path style="opacity:1" fill="#2b4322" d="M 145.5,59.5 C 145.5,59.8333 145.5,60.1667 145.5,60.5C 144.833,60.5 144.5,60.8333 144.5,61.5C 142.926,63.1016 142.259,65.1016 142.5,67.5C 141.387,66.0536 141.22,64.3869 142,62.5C 142.422,60.5743 143.589,59.5743 145.5,59.5 Z"/></g>
<g><path style="opacity:1" fill="#243d1f" d="M 75.5,59.5 C 74.6334,63.3295 72.9668,66.6628 70.5,69.5C 71.3666,65.6705 73.0332,62.3372 75.5,59.5 Z"/></g>
<g><path style="opacity:1" fill="#21361d" d="M 79.5,57.5 C 81.4484,59.3204 82.4484,61.6538 82.5,64.5C 83.5,64.5 84.5,64.5 85.5,64.5C 86.0284,61.3119 87.6951,58.9786 90.5,57.5C 88.9302,59.8954 87.5968,62.3954 86.5,65C 86.9543,66.9386 87.621,68.772 88.5,70.5C 86.9519,70.8212 86.2852,71.8212 86.5,73.5C 83.715,74.0838 82.0483,73.0838 81.5,70.5C 82.4822,71.1408 83.4822,71.8075 84.5,72.5C 84.8333,72 85.1667,71.5 85.5,71C 82.4425,67.0032 80.4425,62.5032 79.5,57.5 Z"/></g>
<g><path style="opacity:1" fill="#2f442a" d="M 95.5,64.5 C 98.0593,64.1984 100.393,64.5318 102.5,65.5C 102.5,67.5 102.5,69.5 102.5,71.5C 100.834,73.8284 98.5005,74.8284 95.5,74.5C 92.1815,74.841 89.8482,73.5076 88.5,70.5C 92.2381,72.4166 96.2381,72.9166 100.5,72C 101.423,69.9592 101.756,67.7925 101.5,65.5C 99.8008,65.3398 98.1341,65.5065 96.5,66C 99.3463,66.8793 100.013,68.5459 98.5,71C 95.7884,71.8258 93.4551,71.3258 91.5,69.5C 93.5273,69.6621 95.5273,69.4955 97.5,69C 95.9632,67.8904 95.2965,66.3904 95.5,64.5 Z"/></g>
<g><path style="opacity:1" fill="#daba95" d="M 163.5,57.5 C 163.5,62.1667 163.5,66.8333 163.5,71.5C 166.167,71.5 168.833,71.5 171.5,71.5C 172.043,71.56 172.376,71.8933 172.5,72.5C 168.893,73.4892 165.226,73.8226 161.5,73.5C 160.887,67.7291 161.554,62.3958 163.5,57.5 Z"/></g>
<g><path style="opacity:1" fill="#d8b993" d="M 208.5,57.5 C 209.809,59.5706 210.475,62.0706 210.5,65C 210.475,67.9294 209.809,70.4294 208.5,72.5C 208.5,67.5 208.5,62.5 208.5,57.5 Z"/></g>
<g><path style="opacity:1" fill="#4d3723" d="M 235.5,56.5 C 235.5,61.8333 235.5,67.1667 235.5,72.5C 234.698,71.0484 234.198,69.3817 234,67.5C 233.623,68.9423 232.79,69.9423 231.5,70.5C 232.299,67.5701 232.632,64.5701 232.5,61.5C 233.222,61.9175 233.722,62.5842 234,63.5C 234.186,60.9644 234.686,58.631 235.5,56.5 Z"/></g>
<g><path style="opacity:1" fill="#0c2608" d="M 104.5,57.5 C 104.5,62.5 104.5,67.5 104.5,72.5C 103.833,72.1667 103.167,71.8333 102.5,71.5C 102.5,69.5 102.5,67.5 102.5,65.5C 103.167,62.8333 103.833,60.1667 104.5,57.5 Z"/></g>
<g><path style="opacity:1" fill="#031003" d="M 126.5,56.5 C 124.488,58.5671 124.154,60.9004 125.5,63.5C 128.021,64.6882 130.355,66.0216 132.5,67.5C 132.38,68.5862 131.713,69.2528 130.5,69.5C 127.885,68.7308 125.219,68.3975 122.5,68.5C 122.5,64.5 122.5,60.5 122.5,56.5C 123.833,55.1667 125.167,55.1667 126.5,56.5 Z"/></g>
<g><path style="opacity:1" fill="#a68b6f" d="M 197.5,58.5 C 198.326,62.9819 198.826,67.6486 199,72.5C 199.175,67.9805 199.675,63.6472 200.5,59.5C 200.5,63.8333 200.5,68.1667 200.5,72.5C 199.5,73.8333 198.5,73.8333 197.5,72.5C 197.5,67.8333 197.5,63.1667 197.5,58.5 Z"/></g>
<g><path style="opacity:1" fill="#1d3b16" d="M 76.5,61.5 C 77.5,61.5 78.5,61.5 79.5,61.5C 79.5,63.5 79.5,65.5 79.5,67.5C 78.1667,67.5 76.8333,67.5 75.5,67.5C 75.8333,65.5 76.1667,63.5 76.5,61.5 Z"/></g>
<g><path style="opacity:1" fill="#6e5a42" d="M 174.5,56.5 C 175.833,56.5 177.167,56.5 178.5,56.5C 178.5,60.5 178.5,64.5 178.5,68.5C 177.834,64.9792 177.167,61.3125 176.5,57.5C 175.509,61.4454 175.176,65.4454 175.5,69.5C 174.515,65.3656 174.182,61.0323 174.5,56.5 Z"/></g>
<g><path style="opacity:1" fill="#bba07d" d="M 227.5,56.5 C 229.138,57.8322 230.804,59.1655 232.5,60.5C 232.5,60.8333 232.5,61.1667 232.5,61.5C 232.632,64.5701 232.299,67.5701 231.5,70.5C 230.5,71.1667 229.5,71.8333 228.5,72.5C 225.57,73.299 222.57,73.6323 219.5,73.5C 214.229,70.6156 212.562,66.2823 214.5,60.5C 215.343,58.8267 216.676,57.66 218.5,57C 221.482,56.502 224.482,56.3354 227.5,56.5 Z"/></g>
<g><path style="opacity:1" fill="#150a07" d="M 217.5,66.5 C 217.253,64.1417 217.919,62.1417 219.5,60.5C 226.18,58.0103 229.347,60.3436 229,67.5C 226.447,70.2646 223.281,71.0979 219.5,70C 218.177,69.1841 217.511,68.0174 217.5,66.5 Z"/></g>
<g><path style="opacity:1" fill="#765c3e" d="M 219.5,60.5 C 217.919,62.1417 217.253,64.1417 217.5,66.5C 216.387,65.0536 216.22,63.3869 217,61.5C 217.671,60.7476 218.504,60.4142 219.5,60.5 Z"/></g>
<g><path style="opacity:1" fill="#38502e" d="M 106.5,56.5 C 105.221,61.4489 105.221,66.4489 106.5,71.5C 107.429,70.3112 107.762,68.9778 107.5,67.5C 109.483,67.1568 110.817,67.8235 111.5,69.5C 110.85,69.1961 110.183,68.8627 109.5,68.5C 109.302,71.7852 107.635,73.4518 104.5,73.5C 104.5,73.1667 104.5,72.8333 104.5,72.5C 104.5,67.5 104.5,62.5 104.5,57.5C 104.842,56.6618 105.508,56.3284 106.5,56.5 Z"/></g>
<g><path style="opacity:1" fill="#5f7d53" d="M 106.5,56.5 C 108.5,56.5 110.5,56.5 112.5,56.5C 112.833,56.5 113.167,56.5 113.5,56.5C 114.908,57.9108 115.908,59.5775 116.5,61.5C 115.723,63.4466 114.723,65.2799 113.5,67C 114.167,68.3333 114.833,69.6667 115.5,71C 115.167,71.5 114.833,72 114.5,72.5C 113.265,71.6602 112.265,70.6602 111.5,69.5C 110.817,67.8235 109.483,67.1568 107.5,67.5C 107.762,68.9778 107.429,70.3112 106.5,71.5C 105.221,66.4489 105.221,61.4489 106.5,56.5 Z"/></g>
<g><path style="opacity:1" fill="#214218" d="M 112.5,59.5 C 114.176,63.8332 112.509,65.4998 107.5,64.5C 107.5,62.5 107.5,60.5 107.5,58.5C 109.415,58.2155 111.081,58.5489 112.5,59.5 Z"/></g>
<g><path style="opacity:1" fill="#011600" d="M 112.5,59.5 C 112.833,62.5 111.5,63.8333 108.5,63.5C 108.5,62.1667 108.5,60.8333 108.5,59.5C 109.833,59.5 111.167,59.5 112.5,59.5 Z"/></g>
<g><path style="opacity:1" fill="#614a32" d="M 200.5,58.5 C 202.167,58.5 203.833,58.5 205.5,58.5C 204.432,59.4345 203.099,59.7678 201.5,59.5C 201.818,64.0323 201.485,68.3656 200.5,72.5C 200.5,68.1667 200.5,63.8333 200.5,59.5C 200.5,59.1667 200.5,58.8333 200.5,58.5 Z"/></g>
<g><path style="opacity:1" fill="#5f4932" d="M 205.5,56.5 C 206.167,56.5 206.833,56.5 207.5,56.5C 207.833,56.5 208.167,56.5 208.5,56.5C 208.5,56.8333 208.5,57.1667 208.5,57.5C 208.5,62.5 208.5,67.5 208.5,72.5C 208.5,72.8333 208.5,73.1667 208.5,73.5C 208.141,68.2514 207.141,63.2514 205.5,58.5C 205.5,57.8333 205.5,57.1667 205.5,56.5 Z"/></g>
<g><path style="opacity:1" fill="#121f0c" d="M 121.5,56.5 C 121.833,56.5 122.167,56.5 122.5,56.5C 122.5,60.5 122.5,64.5 122.5,68.5C 125.219,68.3975 127.885,68.7308 130.5,69.5C 131.713,69.2528 132.38,68.5862 132.5,67.5C 133.404,68.209 133.737,69.209 133.5,70.5C 131.08,70.7076 128.747,70.3742 126.5,69.5C 125.571,70.6888 125.238,72.0222 125.5,73.5C 123.589,73.9909 121.589,73.9909 119.5,73.5C 121.45,68.2649 122.117,62.5982 121.5,56.5 Z"/></g>
<g><path style="opacity:1" fill="#10200c" d="M 113.5,56.5 C 115.017,56.5106 116.184,57.1772 117,58.5C 117.383,57.944 117.883,57.6107 118.5,57.5C 118.5,62.8333 118.5,68.1667 118.5,73.5C 115.534,73.8897 112.868,73.223 110.5,71.5C 109.045,74.3566 107.045,75.0232 104.5,73.5C 107.635,73.4518 109.302,71.7852 109.5,68.5C 110.183,68.8627 110.85,69.1961 111.5,69.5C 112.265,70.6602 113.265,71.6602 114.5,72.5C 114.833,72 115.167,71.5 115.5,71C 114.833,69.6667 114.167,68.3333 113.5,67C 114.723,65.2799 115.723,63.4466 116.5,61.5C 115.908,59.5775 114.908,57.9108 113.5,56.5 Z"/></g>
<g><path style="opacity:1" fill="#271d14" d="M 174.5,56.5 C 174.182,61.0323 174.515,65.3656 175.5,69.5C 175.557,70.609 175.89,71.609 176.5,72.5C 175.005,72.4148 174.005,73.0815 173.5,74.5C 171.333,74.8333 169.167,75.1667 167,75.5C 164.39,75.4668 162.223,74.8001 160.5,73.5C 160.833,73.5 161.167,73.5 161.5,73.5C 165.226,73.8226 168.893,73.4892 172.5,72.5C 172.376,71.8933 172.043,71.56 171.5,71.5C 169.167,70.8333 166.833,70.1667 164.5,69.5C 167.5,69.5 170.5,69.5 173.5,69.5C 173.182,64.9677 173.515,60.6344 174.5,56.5 Z"/></g>
<g><path style="opacity:1" fill="#422917" d="M 178.5,68.5 C 180.764,69.2186 183.097,69.552 185.5,69.5C 184.081,70.4511 182.415,70.7845 180.5,70.5C 179.5,70.1667 178.833,69.5 178.5,68.5 Z"/></g>
<g><path style="opacity:1" fill="#957b63" d="M 240.5,63.5 C 238.598,66.3373 237.931,69.6707 238.5,73.5C 237.209,73.7373 236.209,73.404 235.5,72.5C 237.402,69.6627 238.069,66.3293 237.5,62.5C 238.791,62.2627 239.791,62.596 240.5,63.5 Z"/></g>
<g><path style="opacity:1" fill="#506546" d="M 151.5,56.5 C 153.153,56.6596 154.486,57.3263 155.5,58.5C 157.609,60.1217 158.609,62.2884 158.5,65C 157.474,68.2193 155.808,71.0527 153.5,73.5C 152.833,73.5 152.167,73.5 151.5,73.5C 148.763,73.5987 146.096,73.2653 143.5,72.5C 142.167,71.8333 141.167,70.8333 140.5,69.5C 141.492,69.6716 142.158,69.3382 142.5,68.5C 146.335,71.1253 150.168,71.1253 154,68.5C 155.833,61.1657 153,58.1657 145.5,59.5C 147.631,58.6862 149.964,58.1862 152.5,58C 151.944,57.6174 151.611,57.1174 151.5,56.5 Z"/></g>
<g><path style="opacity:1" fill="#5e4732" d="M 163.5,56.5 C 164.485,60.6344 164.818,64.9677 164.5,69.5C 166.833,70.1667 169.167,70.8333 171.5,71.5C 168.833,71.5 166.167,71.5 163.5,71.5C 163.5,66.8333 163.5,62.1667 163.5,57.5C 163.5,57.1667 163.5,56.8333 163.5,56.5 Z"/></g>
<g><path style="opacity:1" fill="#d0b08c" d="M 178.5,68.5 C 178.833,69.5 179.5,70.1667 180.5,70.5C 182.167,71.1667 183.833,71.8333 185.5,72.5C 185.5,72.8333 185.5,73.1667 185.5,73.5C 182.763,73.5987 180.096,73.2653 177.5,72.5C 177.167,72.5 176.833,72.5 176.5,72.5C 175.89,71.609 175.557,70.609 175.5,69.5C 175.176,65.4454 175.509,61.4454 176.5,57.5C 177.167,61.3125 177.834,64.9792 178.5,68.5 Z"/></g>
<g><path style="opacity:1" fill="#261b10" d="M 207.5,56.5 C 206.833,56.5 206.167,56.5 205.5,56.5C 201.116,56.1744 196.783,56.5078 192.5,57.5C 194.045,58.4519 195.712,58.7852 197.5,58.5C 197.5,63.1667 197.5,67.8333 197.5,72.5C 196.515,68.3656 196.182,64.0323 196.5,59.5C 194.833,59.5 193.167,59.5 191.5,59.5C 192.571,65.8708 190.904,71.2042 186.5,75.5C 185.893,75.3764 185.56,75.0431 185.5,74.5C 185.5,74.1667 185.5,73.8333 185.5,73.5C 185.5,73.1667 185.5,72.8333 185.5,72.5C 189.316,70.9002 190.982,67.9002 190.5,63.5C 190.333,61.5 190.167,59.5 190,57.5C 189.329,56.7476 188.496,56.4142 187.5,56.5C 191.054,55.0156 194.888,54.3489 199,54.5C 201.5,54.6667 204,54.8333 206.5,55C 207.056,55.3826 207.389,55.8826 207.5,56.5 Z"/></g>
<g><path style="opacity:1" fill="#8d7555" d="M 208.5,57.5 C 208.5,57.1667 208.5,56.8333 208.5,56.5C 209.791,56.2627 210.791,56.596 211.5,57.5C 211.5,62.8333 211.5,68.1667 211.5,73.5C 210.5,73.5 209.5,73.5 208.5,73.5C 208.5,73.1667 208.5,72.8333 208.5,72.5C 209.809,70.4294 210.475,67.9294 210.5,65C 210.475,62.0706 209.809,59.5706 208.5,57.5 Z"/></g>
<g><path style="opacity:1" fill="#291a11" d="M 211.5,57.5 C 212.29,58.6085 212.79,59.9419 213,61.5C 213.383,60.944 213.883,60.6107 214.5,60.5C 212.562,66.2823 214.229,70.6156 219.5,73.5C 219.5,73.8333 219.5,74.1667 219.5,74.5C 217.315,74.1119 215.482,73.1119 214,71.5C 212.989,72.0556 212.156,72.7222 211.5,73.5C 211.5,68.1667 211.5,62.8333 211.5,57.5 Z"/></g>
<g><path style="opacity:1" fill="#433221" d="M 243.5,68.5 C 245.587,69.5846 246.92,71.2512 247.5,73.5C 245.413,72.4154 244.08,70.7488 243.5,68.5 Z"/></g>
<g><path style="opacity:1" fill="#a58a6c" d="M 187.5,56.5 C 188.496,56.4142 189.329,56.7476 190,57.5C 190.167,59.5 190.333,61.5 190.5,63.5C 190.982,67.9002 189.316,70.9002 185.5,72.5C 183.833,71.8333 182.167,71.1667 180.5,70.5C 182.415,70.7845 184.081,70.4511 185.5,69.5C 186.167,65.1667 186.833,60.8333 187.5,56.5 Z"/></g>
<g><path style="opacity:1" fill="#21150e" d="M 240.5,63.5 C 241.925,64.922 242.925,66.5887 243.5,68.5C 242.312,67.3157 241.145,67.3157 240,68.5C 239.505,70.4727 239.338,72.4727 239.5,74.5C 236.71,74.7776 234.21,74.1109 232,72.5C 230.862,72.9891 229.695,73.3225 228.5,73.5C 228.5,73.1667 228.5,72.8333 228.5,72.5C 229.5,71.8333 230.5,71.1667 231.5,70.5C 232.79,69.9423 233.623,68.9423 234,67.5C 234.198,69.3817 234.698,71.0484 235.5,72.5C 236.209,73.404 237.209,73.7373 238.5,73.5C 237.931,69.6707 238.598,66.3373 240.5,63.5 Z"/></g>
<g><path style="opacity:1" fill="#212e16" d="M 143.5,72.5 C 146.096,73.2653 148.763,73.5987 151.5,73.5C 150.551,74.1524 149.385,74.4857 148,74.5C 145.992,74.6932 144.492,74.0265 143.5,72.5 Z"/></g>
<g><path style="opacity:1" fill="#62513b" d="M 177.5,72.5 C 180.096,73.2653 182.763,73.5987 185.5,73.5C 185.5,73.8333 185.5,74.1667 185.5,74.5C 183.143,74.6633 180.81,74.4966 178.5,74C 177.944,73.6174 177.611,73.1174 177.5,72.5 Z"/></g>
<g><path style="opacity:1" fill="#54462c" d="M 228.5,72.5 C 228.5,72.8333 228.5,73.1667 228.5,73.5C 225.609,74.4025 222.609,74.7359 219.5,74.5C 219.5,74.1667 219.5,73.8333 219.5,73.5C 222.57,73.6323 225.57,73.299 228.5,72.5 Z"/></g>
<g><path style="opacity:1" fill="#3d4a35" d="M 46.5,96.5 C 46.5,95.1667 45.8333,94.5 44.5,94.5C 44.8212,92.9519 45.8212,92.2852 47.5,92.5C 47.7678,94.099 47.4345,95.4324 46.5,96.5 Z"/></g>
<g><path style="opacity:1" fill="#7f6c55" d="M 276.5,93.5 C 274.744,94.5521 274.077,96.2188 274.5,98.5C 273.539,96.7354 273.205,94.7354 273.5,92.5C 274.791,92.2627 275.791,92.596 276.5,93.5 Z"/></g>
<g><path style="opacity:1" fill="#2c4725" d="M 44.5,94.5 C 43.2042,99.3934 41.5376,104.06 39.5,108.5C 40.2934,104.12 41.2934,99.7862 42.5,95.5C 43.1667,95.1667 43.8333,94.8333 44.5,94.5 Z"/></g>
<g><path style="opacity:1" fill="#8f7c5f" d="M 187.5,109.5 C 187.167,109.5 186.833,109.5 186.5,109.5C 188.31,105.69 188.81,101.69 188,97.5C 186.644,98.3802 185.144,98.7135 183.5,98.5C 189.354,94.8704 191.52,96.5371 190,103.5C 189.427,105.641 188.594,107.641 187.5,109.5 Z"/></g>
<g><path style="opacity:1" fill="#5b452e" d="M 277.5,95.5 C 278.906,95.9731 279.573,96.9731 279.5,98.5C 278.094,98.0269 277.427,97.0269 277.5,95.5 Z"/></g>
<g><path style="opacity:0.125" fill="#282828" d="M 28.5,94.5 C 27.7444,98.767 26.411,102.767 24.5,106.5C 24.8606,102.085 26.1939,98.0845 28.5,94.5 Z"/></g>
<g><path style="opacity:1" fill="#786047" d="M 181.5,98.5 C 180.5,99.8333 179.5,101.167 178.5,102.5C 177.833,102.5 177.5,102.833 177.5,103.5C 176.167,104.5 174.833,105.5 173.5,106.5C 175.167,102.833 177.833,100.167 181.5,98.5 Z"/></g>
<g><path style="opacity:1" fill="#081405" d="M 43.5,112.5 C 43.5465,109.031 44.2132,105.698 45.5,102.5C 45.8333,100.5 46.1667,98.5 46.5,96.5C 47.4345,95.4324 47.7678,94.099 47.5,92.5C 45.8212,92.2852 44.8212,92.9519 44.5,94.5C 43.8333,94.8333 43.1667,95.1667 42.5,95.5C 42.8923,93.8211 43.3923,92.1545 44,90.5C 45.3561,91.3802 46.8561,91.7135 48.5,91.5C 47.7119,98.7879 46.0453,105.788 43.5,112.5 Z"/></g>
<g><path style="opacity:1" fill="#e3c297" d="M 186.5,109.5 C 184.947,111.385 182.947,112.385 180.5,112.5C 181.339,109.16 183.173,106.493 186,104.5C 186.49,103.207 186.657,101.873 186.5,100.5C 183.779,100.963 181.112,101.629 178.5,102.5C 179.5,101.167 180.5,99.8333 181.5,98.5C 182.167,98.5 182.833,98.5 183.5,98.5C 185.144,98.7135 186.644,98.3802 188,97.5C 188.81,101.69 188.31,105.69 186.5,109.5 Z"/></g>
<g><path style="opacity:1" fill="#14210f" d="M 151.5,106.5 C 154.518,106.335 157.518,106.502 160.5,107C 161.252,107.671 161.586,108.504 161.5,109.5C 160.833,109.5 160.167,109.5 159.5,109.5C 158.167,109.167 156.833,108.833 155.5,108.5C 154.167,107.833 152.833,107.167 151.5,106.5 Z"/></g>
<g><path style="opacity:1" fill="#473220" d="M 173.5,106.5 C 173.5,107.167 173.5,107.833 173.5,108.5C 172.417,108.461 171.417,108.127 170.5,107.5C 169.702,107.957 169.369,108.624 169.5,109.5C 168.596,108.791 168.263,107.791 168.5,106.5C 170.167,106.5 171.833,106.5 173.5,106.5 Z"/></g>
<g><path style="opacity:1" fill="#413f29" d="M 159.5,109.5 C 160.167,109.5 160.833,109.5 161.5,109.5C 163.252,111.246 164.585,113.246 165.5,115.5C 164.5,114.833 163.5,114.167 162.5,113.5C 162.167,112.5 161.5,111.833 160.5,111.5C 160.167,110.833 159.833,110.167 159.5,109.5 Z"/></g>
<g><path style="opacity:1" fill="#c5a079" d="M 177.5,103.5 C 179.477,106.893 178.81,109.559 175.5,111.5C 177.045,112.452 178.712,112.785 180.5,112.5C 180.5,113.167 180.167,113.5 179.5,113.5C 177.5,113.5 175.5,113.5 173.5,113.5C 173.5,111.833 173.5,110.167 173.5,108.5C 173.5,107.833 173.5,107.167 173.5,106.5C 174.833,105.5 176.167,104.5 177.5,103.5 Z"/></g>
<g><path style="opacity:1" fill="#eac18d" d="M 180.5,112.5 C 178.712,112.785 177.045,112.452 175.5,111.5C 178.81,109.559 179.477,106.893 177.5,103.5C 177.5,102.833 177.833,102.5 178.5,102.5C 181.112,101.629 183.779,100.963 186.5,100.5C 186.657,101.873 186.49,103.207 186,104.5C 183.173,106.493 181.339,109.16 180.5,112.5 Z"/></g>
<g><path style="opacity:1" fill="#4d3c28" d="M 186.5,109.5 C 186.833,109.5 187.167,109.5 187.5,109.5C 185.797,112.632 183.13,114.299 179.5,114.5C 179.5,114.167 179.5,113.833 179.5,113.5C 180.167,113.5 180.5,113.167 180.5,112.5C 182.947,112.385 184.947,111.385 186.5,109.5 Z"/></g>
<g><path style="opacity:1" fill="#d2b18a" d="M 276.5,93.5 C 277.338,93.8417 277.672,94.5084 277.5,95.5C 277.427,97.0269 278.094,98.0269 279.5,98.5C 280.965,104.494 282.298,110.494 283.5,116.5C 284.055,120.012 283.388,123.012 281.5,125.5C 281.672,124.508 281.338,123.842 280.5,123.5C 280.5,122.833 280.5,122.167 280.5,121.5C 280.277,117.838 279.277,114.505 277.5,111.5C 276.971,107.051 275.971,102.718 274.5,98.5C 274.077,96.2188 274.744,94.5521 276.5,93.5 Z"/></g>
<g><path style="opacity:1" fill="#406236" d="M 151.5,106.5 C 147.534,105.838 143.534,105.505 139.5,105.5C 139.291,109.861 140.291,113.861 142.5,117.5C 140.461,116.328 139.128,114.662 138.5,112.5C 137.735,109.904 137.401,107.237 137.5,104.5C 141.514,104.334 145.514,104.501 149.5,105C 150.416,105.278 151.082,105.778 151.5,106.5 Z"/></g>
<g><path style="opacity:1" fill="#26421c" d="M 39.5,108.5 C 39.3185,112.489 38.3185,116.156 36.5,119.5C 36.5,118.167 36.5,116.833 36.5,115.5C 37.3228,113.013 38.3228,110.679 39.5,108.5 Z"/></g>
<g><path style="opacity:1" fill="#2a4521" d="M 45.5,102.5 C 44.2132,105.698 43.5465,109.031 43.5,112.5C 42.8902,113.391 42.5569,114.391 42.5,115.5C 42.1667,115.5 41.8333,115.5 41.5,115.5C 41.8897,112.161 42.3897,108.827 43,105.5C 43.3768,104.058 44.2101,103.058 45.5,102.5 Z"/></g>
<g><path style="opacity:1" fill="#abac74" d="M 160.5,111.5 C 161.5,111.833 162.167,112.5 162.5,113.5C 161.019,116.23 161.353,118.73 163.5,121C 163.361,122.301 162.695,123.134 161.5,123.5C 161.167,123.5 160.833,123.5 160.5,123.5C 159.774,119.321 159.774,115.321 160.5,111.5 Z"/></g>
<g><path style="opacity:1" fill="#051402" d="M 138.5,112.5 C 139.128,114.662 140.461,116.328 142.5,117.5C 142.703,119.044 143.37,120.378 144.5,121.5C 149.132,125.15 154.465,126.483 160.5,125.5C 152.375,128.239 145.542,126.239 140,119.5C 138.798,117.323 138.298,114.989 138.5,112.5 Z"/></g>
<g><path style="opacity:1" fill="#564028" d="M 277.5,111.5 C 279.277,114.505 280.277,117.838 280.5,121.5C 278.723,118.495 277.723,115.162 277.5,111.5 Z"/></g>
<g><path style="opacity:1" fill="#a28667" d="M 162.5,113.5 C 163.5,114.167 164.5,114.833 165.5,115.5C 165.5,117.833 165.5,120.167 165.5,122.5C 164.486,123.674 163.153,124.34 161.5,124.5C 161.5,124.167 161.5,123.833 161.5,123.5C 162.695,123.134 163.361,122.301 163.5,121C 161.353,118.73 161.019,116.23 162.5,113.5 Z"/></g>
<g><path style="opacity:1" fill="#39592e" d="M 142.5,117.5 C 145.003,119.833 147.669,121.999 150.5,124C 153.924,124.747 157.257,124.58 160.5,123.5C 160.833,123.5 161.167,123.5 161.5,123.5C 161.5,123.833 161.5,124.167 161.5,124.5C 160.833,124.5 160.5,124.833 160.5,125.5C 154.465,126.483 149.132,125.15 144.5,121.5C 143.37,120.378 142.703,119.044 142.5,117.5 Z"/></g>
<g><path style="opacity:1" fill="#887362" d="M 173.5,108.5 C 173.5,110.167 173.5,111.833 173.5,113.5C 175.5,113.5 177.5,113.5 179.5,113.5C 179.5,113.833 179.5,114.167 179.5,114.5C 177.167,114.5 174.833,114.5 172.5,114.5C 172.296,117.518 171.963,120.518 171.5,123.5C 170.203,125.371 169.203,127.371 168.5,129.5C 168.657,128.127 168.49,126.793 168,125.5C 167.617,126.056 167.117,126.389 166.5,126.5C 166.557,125.391 166.89,124.391 167.5,123.5C 168.674,122.486 169.34,121.153 169.5,119.5C 169.5,116.167 169.5,112.833 169.5,109.5C 169.369,108.624 169.702,107.957 170.5,107.5C 171.417,108.127 172.417,108.461 173.5,108.5 Z"/></g>
<g><path style="opacity:1" fill="#122411" d="M 36.5,115.5 C 36.5,116.833 36.5,118.167 36.5,119.5C 35.6673,132.815 35.3339,146.149 35.5,159.5C 34.1721,154.712 33.5054,149.546 33.5,144C 33.6667,138.833 33.8333,133.667 34,128.5C 34.1487,123.899 34.982,119.566 36.5,115.5 Z"/></g>
<g><path style="opacity:1" fill="#111d09" d="M 41.5,115.5 C 41.8333,115.5 42.1667,115.5 42.5,115.5C 40.8832,130.098 40.2165,144.764 40.5,159.5C 40.1667,159.5 39.8333,159.5 39.5,159.5C 38.1667,148.833 38.1667,138.167 39.5,127.5C 40.9891,123.764 41.6558,119.764 41.5,115.5 Z"/></g>
<g><path style="opacity:1" fill="#5a4b36" d="M 165.5,115.5 C 167.067,116.681 167.901,118.347 168,120.5C 168.383,119.944 168.883,119.611 169.5,119.5C 169.34,121.153 168.674,122.486 167.5,123.5C 167.158,122.662 166.492,122.328 165.5,122.5C 165.5,120.167 165.5,117.833 165.5,115.5 Z"/></g>
<g><path style="opacity:1" fill="#81b968" d="M 151.5,106.5 C 152.833,107.167 154.167,107.833 155.5,108.5C 156.833,108.833 158.167,109.167 159.5,109.5C 159.833,110.167 160.167,110.833 160.5,111.5C 159.774,115.321 159.774,119.321 160.5,123.5C 157.257,124.58 153.924,124.747 150.5,124C 147.669,121.999 145.003,119.833 142.5,117.5C 140.291,113.861 139.291,109.861 139.5,105.5C 143.534,105.505 147.534,105.838 151.5,106.5 Z"/></g>
<g><path style="opacity:1" fill="#7dcc64" d="M 155.5,108.5 C 155.826,110.661 156.826,112.494 158.5,114C 155.094,114.603 154.761,115.769 157.5,117.5C 158.452,119.045 158.785,120.712 158.5,122.5C 156.396,122.799 154.396,122.466 152.5,121.5C 150.025,119.589 147.359,117.922 144.5,116.5C 142.87,113.724 142.203,110.724 142.5,107.5C 146.857,107.586 151.19,107.92 155.5,108.5 Z"/></g>
<g><path style="opacity:1" fill="#29461e" d="M 41.5,115.5 C 41.6558,119.764 40.9891,123.764 39.5,127.5C 39.5387,123.267 40.2053,119.267 41.5,115.5 Z"/></g>
<g><path style="opacity:1" fill="#251911" d="M 165.5,122.5 C 166.492,122.328 167.158,122.662 167.5,123.5C 166.89,124.391 166.557,125.391 166.5,126.5C 166.204,128.403 165.537,130.07 164.5,131.5C 163.076,133.515 162.41,135.848 162.5,138.5C 162.5,140.167 162.5,141.833 162.5,143.5C 162.843,145.483 162.176,146.817 160.5,147.5C 160.167,147.5 159.833,147.5 159.5,147.5C 161.251,141.438 162.251,135.105 162.5,128.5C 162.36,126.97 161.693,125.97 160.5,125.5C 160.5,124.833 160.833,124.5 161.5,124.5C 163.153,124.34 164.486,123.674 165.5,122.5 Z"/></g>
<g><path style="opacity:1" fill="#44321d" d="M 284.5,120.5 C 285.473,122.948 285.806,125.615 285.5,128.5C 284.833,128.167 284.167,127.833 283.5,127.5C 284.369,125.283 284.702,122.95 284.5,120.5 Z"/></g>
<g><path style="opacity:1" fill="#ad9476" d="M 283.5,116.5 C 284.434,117.568 284.768,118.901 284.5,120.5C 284.702,122.95 284.369,125.283 283.5,127.5C 282.566,128.568 282.232,129.901 282.5,131.5C 281.539,129.735 281.205,127.735 281.5,125.5C 283.388,123.012 284.055,120.012 283.5,116.5 Z"/></g>
<g><path style="opacity:1" fill="#baa282" d="M 168.5,129.5 C 166.645,134.12 166.312,138.786 167.5,143.5C 167.778,145.346 167.111,146.68 165.5,147.5C 164.141,146.376 163.141,145.042 162.5,143.5C 162.5,141.833 162.5,140.167 162.5,138.5C 163.924,136.485 164.59,134.152 164.5,131.5C 165.537,130.07 166.204,128.403 166.5,126.5C 167.117,126.389 167.617,126.056 168,125.5C 168.49,126.793 168.657,128.127 168.5,129.5 Z"/></g>
<g><path style="opacity:0.106" fill="#1d1b1b" d="M 300.5,127.5 C 301.763,140.491 301.763,153.491 300.5,166.5C 300.41,153.492 300.41,140.492 300.5,127.5 Z"/></g>
<g><path style="opacity:1" fill="#281b13" d="M 171.5,123.5 C 170.935,128.495 169.935,133.328 168.5,138C 168.725,140.528 169.058,143.028 169.5,145.5C 171.099,145.232 172.432,145.566 173.5,146.5C 171.833,146.5 170.167,146.5 168.5,146.5C 168.737,145.209 168.404,144.209 167.5,143.5C 166.312,138.786 166.645,134.12 168.5,129.5C 169.203,127.371 170.203,125.371 171.5,123.5 Z"/></g>
<g><path style="opacity:1" fill="#836d56" d="M 164.5,131.5 C 164.59,134.152 163.924,136.485 162.5,138.5C 162.41,135.848 163.076,133.515 164.5,131.5 Z"/></g>
<g><path style="opacity:1" fill="#e2bd96" d="M 283.5,127.5 C 284.462,140.117 284.795,152.784 284.5,165.5C 283.883,165.611 283.383,165.944 283,166.5C 282.502,163.518 282.335,160.518 282.5,157.5C 282.5,148.833 282.5,140.167 282.5,131.5C 282.232,129.901 282.566,128.568 283.5,127.5 Z"/></g>
<g><path style="opacity:1" fill="#685237" d="M 280.5,123.5 C 281.338,123.842 281.672,124.508 281.5,125.5C 281.205,127.735 281.539,129.735 282.5,131.5C 282.5,140.167 282.5,148.833 282.5,157.5C 282.167,157.5 281.833,157.5 281.5,157.5C 281.593,146.15 281.259,134.817 280.5,123.5 Z"/></g>
<g><path style="opacity:1" fill="#685136" d="M 162.5,143.5 C 163.141,145.042 164.141,146.376 165.5,147.5C 167.111,146.68 167.778,145.346 167.5,143.5C 168.404,144.209 168.737,145.209 168.5,146.5C 170.167,146.5 171.833,146.5 173.5,146.5C 175.824,147.656 178.157,148.656 180.5,149.5C 177.568,149.716 174.902,149.049 172.5,147.5C 169.673,148.932 166.673,149.599 163.5,149.5C 162.833,149.167 162.167,148.833 161.5,148.5C 161.167,148.5 160.833,148.5 160.5,148.5C 160.5,148.167 160.5,147.833 160.5,147.5C 162.176,146.817 162.843,145.483 162.5,143.5 Z"/></g>
<g><path style="opacity:1" fill="#d2b591" d="M 180.5,149.5 C 181.473,151.139 182.806,152.473 184.5,153.5C 184.088,155.973 185.088,157.306 187.5,157.5C 187.833,158.167 188.167,158.833 188.5,159.5C 186.833,159.5 185.167,159.5 183.5,159.5C 183.953,155.57 182.286,153.07 178.5,152C 174.257,150.179 169.924,150.012 165.5,151.5C 164.287,151.253 163.62,150.586 163.5,149.5C 166.673,149.599 169.673,148.932 172.5,147.5C 174.902,149.049 177.568,149.716 180.5,149.5 Z"/></g>
<g><path style="opacity:1" fill="#ab8f70" d="M 283.5,127.5 C 284.167,127.833 284.833,128.167 285.5,128.5C 286.094,134.133 286.428,139.799 286.5,145.5C 286.692,152.404 286.025,159.07 284.5,165.5C 284.795,152.784 284.462,140.117 283.5,127.5 Z"/></g>
<g><path style="opacity:1" fill="#83bf6a" d="M 158.5,150.5 C 159.482,153.962 159.815,157.629 159.5,161.5C 157.265,161.795 155.265,161.461 153.5,160.5C 155.167,160.5 156.833,160.5 158.5,160.5C 158.5,158.167 158.5,155.833 158.5,153.5C 154.04,153.311 151.373,155.311 150.5,159.5C 149.192,157.362 149.525,155.362 151.5,153.5C 153.036,150.908 155.369,149.908 158.5,150.5 Z"/></g>
<g><path style="opacity:1" fill="#c0ca89" d="M 160.5,148.5 C 160.833,148.5 161.167,148.5 161.5,148.5C 161.5,153.5 161.5,158.5 161.5,163.5C 160.833,163.5 160.167,163.5 159.5,163.5C 159.5,162.833 159.5,162.167 159.5,161.5C 159.815,157.629 159.482,153.962 158.5,150.5C 158.833,149.5 159.5,148.833 160.5,148.5 Z"/></g>
<g><path style="opacity:1" fill="#f2c997" d="M 161.5,148.5 C 162.167,148.833 162.833,149.167 163.5,149.5C 163.62,150.586 164.287,151.253 165.5,151.5C 169.924,150.012 174.257,150.179 178.5,152C 182.286,153.07 183.953,155.57 183.5,159.5C 185.167,159.5 186.833,159.5 188.5,159.5C 188.67,160.822 188.337,161.989 187.5,163C 184.259,165.201 180.759,167.035 177,168.5C 175.252,166.402 173.085,164.735 170.5,163.5C 168.345,163.838 166.011,163.838 163.5,163.5C 162.833,163.5 162.167,163.5 161.5,163.5C 161.5,158.5 161.5,153.5 161.5,148.5 Z"/></g>
<g><path style="opacity:1" fill="#5c4731" d="M 184.5,153.5 C 185.488,154.795 186.488,156.128 187.5,157.5C 185.088,157.306 184.088,155.973 184.5,153.5 Z"/></g>
<g><path style="opacity:1" fill="#051303" d="M 147.5,153.5 C 146.213,155.805 144.88,158.138 143.5,160.5C 141.929,159.691 140.262,159.357 138.5,159.5C 138.167,159.5 137.833,159.5 137.5,159.5C 132.301,157.856 127.301,158.523 122.5,161.5C 123.987,159.395 125.987,157.728 128.5,156.5C 132.108,157.593 135.775,157.76 139.5,157C 138.304,156.346 138.304,155.846 139.5,155.5C 140.167,156.167 140.833,156.833 141.5,157.5C 143.517,156.039 145.517,154.706 147.5,153.5 Z"/></g>
<g><path style="opacity:1" fill="#81cc66" d="M 153.5,160.5 C 152.209,160.737 151.209,160.404 150.5,159.5C 151.373,155.311 154.04,153.311 158.5,153.5C 158.5,155.833 158.5,158.167 158.5,160.5C 156.833,160.5 155.167,160.5 153.5,160.5 Z"/></g>
<g><path style="opacity:1" fill="#76ac67" d="M 151.5,153.5 C 149.525,155.362 149.192,157.362 150.5,159.5C 151.209,160.404 152.209,160.737 153.5,160.5C 155.265,161.461 157.265,161.795 159.5,161.5C 159.5,162.167 159.5,162.833 159.5,163.5C 155.058,162.879 150.725,161.879 146.5,160.5C 146.608,158.217 147.441,156.217 149,154.5C 149.671,153.748 150.504,153.414 151.5,153.5 Z"/></g>
<g><path style="opacity:1" fill="#67573e" d="M 187.5,157.5 C 189.027,157.427 190.027,158.094 190.5,159.5C 189.833,159.5 189.167,159.5 188.5,159.5C 188.167,158.833 187.833,158.167 187.5,157.5 Z"/></g>
<g><path style="opacity:1" fill="#624d3c" d="M 205.5,160.5 C 202.215,160.21 199.215,160.877 196.5,162.5C 196.953,161.542 197.619,160.708 198.5,160C 201.039,159.204 203.372,159.371 205.5,160.5 Z"/></g>
<g><path style="opacity:0.102" fill="#232325" d="M 18.5,135.5 C 19.3923,147.027 20.3923,158.694 21.5,170.5C 19.0085,159.109 18.0085,147.442 18.5,135.5 Z"/></g>
<g><path style="opacity:1" fill="#6a935d" d="M 44.5,94.5 C 45.8333,94.5 46.5,95.1667 46.5,96.5C 46.1667,98.5 45.8333,100.5 45.5,102.5C 44.2101,103.058 43.3768,104.058 43,105.5C 42.3897,108.827 41.8897,112.161 41.5,115.5C 40.2053,119.267 39.5387,123.267 39.5,127.5C 38.1667,138.167 38.1667,148.833 39.5,159.5C 39.5865,163.857 39.9198,168.19 40.5,172.5C 40.8606,176.915 42.1939,180.915 44.5,184.5C 45.4345,185.568 45.7678,186.901 45.5,188.5C 45.5111,190.547 45.8444,192.547 46.5,194.5C 46.2528,195.713 45.5862,196.38 44.5,196.5C 44.573,194.973 43.9063,193.973 42.5,193.5C 42.5,192.833 42.5,192.167 42.5,191.5C 41.4078,185.567 39.7412,179.9 37.5,174.5C 37.5621,169.924 36.8955,165.591 35.5,161.5C 35.5,160.833 35.5,160.167 35.5,159.5C 35.3339,146.149 35.6673,132.815 36.5,119.5C 38.3185,116.156 39.3185,112.489 39.5,108.5C 41.5376,104.06 43.2042,99.3934 44.5,94.5 Z"/></g>
<g><path style="opacity:1" fill="#1a3416" d="M 39.5,159.5 C 39.8333,159.5 40.1667,159.5 40.5,159.5C 40.9272,163.824 41.2605,168.158 41.5,172.5C 41.1667,172.5 40.8333,172.5 40.5,172.5C 39.9198,168.19 39.5865,163.857 39.5,159.5 Z"/></g>
<g><path style="opacity:1" fill="#75ac60" d="M 137.5,159.5 C 137.833,159.5 138.167,159.5 138.5,159.5C 145.281,161.983 152.281,164.316 159.5,166.5C 159.5,166.833 159.5,167.167 159.5,167.5C 159.5,171.167 159.5,174.833 159.5,178.5C 156.982,177.736 154.649,176.736 152.5,175.5C 154.5,175.5 156.5,175.5 158.5,175.5C 159.303,170.921 157.637,167.754 153.5,166C 148.464,164.573 143.464,163.24 138.5,162C 135.118,161.176 131.784,161.343 128.5,162.5C 122.668,164.838 117.168,167.838 112,171.5C 111.766,177.833 111.932,184.166 112.5,190.5C 116.179,190.276 119.846,189.942 123.5,189.5C 120.502,191.666 117.168,193.333 113.5,194.5C 111.575,194.41 110.408,193.41 110,191.5C 109.333,184.833 109.333,178.167 110,171.5C 111.707,169.963 113.207,168.296 114.5,166.5C 119.973,165.43 124.973,163.263 129.5,160C 132.146,159.503 134.813,159.336 137.5,159.5 Z"/></g>
<g><path style="opacity:1" fill="#315126" d="M 137.5,159.5 C 134.813,159.336 132.146,159.503 129.5,160C 124.973,163.263 119.973,165.43 114.5,166.5C 117.167,164.833 119.833,163.167 122.5,161.5C 127.301,158.523 132.301,157.856 137.5,159.5 Z"/></g>
<g><path style="opacity:1" fill="#2e5722" d="M 159.5,147.5 C 159.833,147.5 160.167,147.5 160.5,147.5C 160.5,147.833 160.5,148.167 160.5,148.5C 159.5,148.833 158.833,149.5 158.5,150.5C 155.369,149.908 153.036,150.908 151.5,153.5C 150.504,153.414 149.671,153.748 149,154.5C 147.441,156.217 146.608,158.217 146.5,160.5C 150.725,161.879 155.058,162.879 159.5,163.5C 160.167,164.167 160.833,164.833 161.5,165.5C 161.158,166.338 160.492,166.672 159.5,166.5C 152.281,164.316 145.281,161.983 138.5,159.5C 140.262,159.357 141.929,159.691 143.5,160.5C 144.88,158.138 146.213,155.805 147.5,153.5C 151.097,150.652 155.097,148.652 159.5,147.5 Z"/></g>
<g><path style="opacity:1" fill="#debd96" d="M 188.5,159.5 C 189.167,159.5 189.833,159.5 190.5,159.5C 191.292,160.967 191.292,162.3 190.5,163.5C 185.588,166.124 180.588,168.457 175.5,170.5C 174.5,170.167 173.833,169.5 173.5,168.5C 171.383,166.345 168.716,165.345 165.5,165.5C 164.833,164.833 164.167,164.167 163.5,163.5C 166.011,163.838 168.345,163.838 170.5,163.5C 173.085,164.735 175.252,166.402 177,168.5C 180.759,167.035 184.259,165.201 187.5,163C 188.337,161.989 188.67,160.822 188.5,159.5 Z"/></g>
<g><path style="opacity:1" fill="#ac8f6c" d="M 159.5,163.5 C 160.167,163.5 160.833,163.5 161.5,163.5C 162.167,163.5 162.833,163.5 163.5,163.5C 164.167,164.167 164.833,164.833 165.5,165.5C 164.167,165.5 162.833,165.5 161.5,165.5C 160.833,164.833 160.167,164.167 159.5,163.5 Z"/></g>
<g><path style="opacity:1" fill="#ae8e6d" d="M 165.5,165.5 C 168.716,165.345 171.383,166.345 173.5,168.5C 170.603,167.871 167.936,166.871 165.5,165.5 Z"/></g>
<g><path style="opacity:1" fill="#876f59" d="M 209.5,163.5 C 210.468,165.607 210.802,167.941 210.5,170.5C 210.011,173.324 208.344,174.657 205.5,174.5C 206.167,173.833 206.833,173.167 207.5,172.5C 209.265,169.877 209.932,166.877 209.5,163.5 Z"/></g>
<g><path style="opacity:1" fill="#453324" d="M 207.5,161.5 C 208.583,161.539 209.583,161.873 210.5,162.5C 211.8,165.309 211.8,167.976 210.5,170.5C 210.802,167.941 210.468,165.607 209.5,163.5C 208.5,163.167 207.833,162.5 207.5,161.5 Z"/></g>
<g><path style="opacity:1" fill="#dfbb98" d="M 205.5,160.5 C 206.492,160.328 207.158,160.662 207.5,161.5C 207.833,162.5 208.5,163.167 209.5,163.5C 209.932,166.877 209.265,169.877 207.5,172.5C 207.5,171.5 207.5,170.5 207.5,169.5C 204.5,169.833 203.167,168.5 203.5,165.5C 204.978,165.762 206.311,165.429 207.5,164.5C 204.252,160.7 200.919,160.866 197.5,165C 195.866,165.494 194.199,165.66 192.5,165.5C 193.167,164.833 193.833,164.167 194.5,163.5C 194.842,162.662 195.508,162.328 196.5,162.5C 199.215,160.877 202.215,160.21 205.5,160.5 Z"/></g>
<g><path style="opacity:1" fill="#273f1d" d="M 35.5,161.5 C 36.8955,165.591 37.5621,169.924 37.5,174.5C 35.9462,170.433 35.2796,166.1 35.5,161.5 Z"/></g>
<g><path style="opacity:1" fill="#7a5f3c" d="M 190.5,159.5 C 191.667,161.041 193,162.375 194.5,163.5C 193.833,164.167 193.167,164.833 192.5,165.5C 188.665,167.25 184.999,169.25 181.5,171.5C 178.962,171.831 177.296,173.164 176.5,175.5C 176.634,173.708 176.301,172.042 175.5,170.5C 180.588,168.457 185.588,166.124 190.5,163.5C 191.292,162.3 191.292,160.967 190.5,159.5 Z"/></g>
<g><path style="opacity:1" fill="#e8c293" d="M 207.5,172.5 C 199.659,170.346 192.325,171.346 185.5,175.5C 183.775,174.985 182.108,174.318 180.5,173.5C 180.863,172.817 181.196,172.15 181.5,171.5C 184.999,169.25 188.665,167.25 192.5,165.5C 194.199,165.66 195.866,165.494 197.5,165C 200.919,160.866 204.252,160.7 207.5,164.5C 206.311,165.429 204.978,165.762 203.5,165.5C 203.167,168.5 204.5,169.833 207.5,169.5C 207.5,170.5 207.5,171.5 207.5,172.5 Z"/></g>
<g><path style="opacity:1" fill="#e7c494" d="M 161.5,167.5 C 164.941,168.193 168.275,169.193 171.5,170.5C 171.414,171.496 171.748,172.329 172.5,173C 171.552,173.483 170.552,173.649 169.5,173.5C 169.719,174.675 169.386,175.675 168.5,176.5C 166.199,177.325 163.865,177.992 161.5,178.5C 161.5,174.833 161.5,171.167 161.5,167.5 Z"/></g>
<g><path style="opacity:1" fill="#4e3a26" d="M 280.5,166.5 C 280.58,169.781 279.913,172.781 278.5,175.5C 278.42,172.219 279.087,169.219 280.5,166.5 Z"/></g>
<g><path style="opacity:1" fill="#306620" d="M 147.5,174.5 C 147.5,174.833 147.5,175.167 147.5,175.5C 145.007,175.131 144.34,175.797 145.5,177.5C 142.544,176.863 139.544,176.363 136.5,176C 139.958,174.585 143.625,174.085 147.5,174.5 Z"/></g>
<g><path style="opacity:1" fill="#c0cb85" d="M 159.5,167.5 C 160.167,167.5 160.833,167.5 161.5,167.5C 161.5,171.167 161.5,174.833 161.5,178.5C 161.167,178.5 160.833,178.5 160.5,178.5C 160.167,178.5 159.833,178.5 159.5,178.5C 159.5,174.833 159.5,171.167 159.5,167.5 Z"/></g>
<g><path style="opacity:1" fill="#1f3919" d="M 114.5,166.5 C 113.207,168.296 111.707,169.963 110,171.5C 109.333,178.167 109.333,184.833 110,191.5C 110.408,193.41 111.575,194.41 113.5,194.5C 117.168,193.333 120.502,191.666 123.5,189.5C 127.042,189.187 130.375,189.521 133.5,190.5C 130.615,190.194 127.948,190.527 125.5,191.5C 121.818,193.257 117.985,194.59 114,195.5C 111.966,195.646 110.299,194.98 109,193.5C 108.333,185.833 108.333,178.167 109,170.5C 110.451,168.536 112.284,167.203 114.5,166.5 Z"/></g>
<g><path style="opacity:1" fill="#ad926d" d="M 171.5,170.5 C 175.473,173.54 175.473,176.706 171.5,180C 168.151,180.388 164.817,180.221 161.5,179.5C 160.833,179.5 160.5,179.167 160.5,178.5C 160.833,178.5 161.167,178.5 161.5,178.5C 163.865,177.992 166.199,177.325 168.5,176.5C 169.386,175.675 169.719,174.675 169.5,173.5C 170.552,173.649 171.552,173.483 172.5,173C 171.748,172.329 171.414,171.496 171.5,170.5 Z"/></g>
<g><path style="opacity:1" fill="#77ba63" d="M 147.5,174.5 C 143.625,174.085 139.958,174.585 136.5,176C 139.544,176.363 142.544,176.863 145.5,177.5C 147.786,177.595 149.786,178.262 151.5,179.5C 144.485,179.384 137.651,178.384 131,176.5C 130.552,174.591 131.385,173.424 133.5,173C 135.833,172.833 138.167,172.667 140.5,172.5C 143.269,172.529 145.603,173.195 147.5,174.5 Z"/></g>
<g><path style="opacity:1" fill="#3c5a30" d="M 40.5,172.5 C 40.8333,172.5 41.1667,172.5 41.5,172.5C 42.5,176.5 43.5,180.5 44.5,184.5C 42.1939,180.915 40.8606,176.915 40.5,172.5 Z"/></g>
<g><path style="opacity:1" fill="#315a1f" d="M 147.5,175.5 C 149.167,175.5 150.833,175.5 152.5,175.5C 154.649,176.736 156.982,177.736 159.5,178.5C 159.833,178.5 160.167,178.5 160.5,178.5C 160.5,179.167 160.833,179.5 161.5,179.5C 161.5,180.167 161.5,180.833 161.5,181.5C 160.833,181.5 160.167,181.5 159.5,181.5C 157.039,180.469 154.373,179.802 151.5,179.5C 149.786,178.262 147.786,177.595 145.5,177.5C 144.34,175.797 145.007,175.131 147.5,175.5 Z"/></g>
<g><path style="opacity:1" fill="#2b1d15" d="M 284.5,172.5 C 285.114,177.069 284.114,181.069 281.5,184.5C 281.973,180.267 282.973,176.267 284.5,172.5 Z"/></g>
<g><path style="opacity:1" fill="#553e23" d="M 161.5,165.5 C 162.833,165.5 164.167,165.5 165.5,165.5C 167.936,166.871 170.603,167.871 173.5,168.5C 173.833,169.5 174.5,170.167 175.5,170.5C 176.301,172.042 176.634,173.708 176.5,175.5C 176.456,179.09 174.789,181.59 171.5,183C 168.132,183.543 164.799,183.376 161.5,182.5C 161.5,182.167 161.5,181.833 161.5,181.5C 161.5,180.833 161.5,180.167 161.5,179.5C 164.817,180.221 168.151,180.388 171.5,180C 175.473,176.706 175.473,173.54 171.5,170.5C 168.275,169.193 164.941,168.193 161.5,167.5C 160.833,167.5 160.167,167.5 159.5,167.5C 159.5,167.167 159.5,166.833 159.5,166.5C 160.492,166.672 161.158,166.338 161.5,165.5 Z"/></g>
<g><path style="opacity:1" fill="#968367" d="M 205.5,174.5 C 203.364,175.653 201.364,176.986 199.5,178.5C 195.277,181.442 190.61,183.609 185.5,185C 184.29,186.039 183.29,187.206 182.5,188.5C 182.167,188.5 181.833,188.5 181.5,188.5C 179.5,189.167 177.5,189.833 175.5,190.5C 175.414,189.504 175.748,188.671 176.5,188C 178.167,187.667 179.833,187.333 181.5,187C 184.151,184.02 187.151,181.353 190.5,179C 189.398,176.609 190.064,176.109 192.5,177.5C 196.382,174.839 200.716,173.839 205.5,174.5 Z"/></g>
<g><path style="opacity:1" fill="#cfae89" d="M 281.5,157.5 C 281.833,157.5 282.167,157.5 282.5,157.5C 282.335,160.518 282.502,163.518 283,166.5C 283.383,165.944 283.883,165.611 284.5,165.5C 284.5,167.833 284.5,170.167 284.5,172.5C 282.973,176.267 281.973,180.267 281.5,184.5C 280.262,186.214 279.595,188.214 279.5,190.5C 277.787,191.635 277.12,193.302 277.5,195.5C 277.5,196.167 277.167,196.5 276.5,196.5C 274.744,195.448 274.077,193.781 274.5,191.5C 275.703,187.89 276.703,184.223 277.5,180.5C 277.366,178.708 277.699,177.042 278.5,175.5C 279.913,172.781 280.58,169.781 280.5,166.5C 281.403,163.609 281.736,160.609 281.5,157.5 Z"/></g>
<g><path style="opacity:1" fill="#7dcd65" d="M 152.5,175.5 C 150.833,175.5 149.167,175.5 147.5,175.5C 147.5,175.167 147.5,174.833 147.5,174.5C 145.603,173.195 143.269,172.529 140.5,172.5C 138.167,172.667 135.833,172.833 133.5,173C 131.385,173.424 130.552,174.591 131,176.5C 137.651,178.384 144.485,179.384 151.5,179.5C 153.268,181.196 155.435,182.53 158,183.5C 160.13,193.099 156.963,195.599 148.5,191C 146.19,190.503 143.857,190.337 141.5,190.5C 140.167,190.5 138.833,190.5 137.5,190.5C 137.38,189.414 136.713,188.747 135.5,188.5C 131.869,187.485 128.202,187.319 124.5,188C 123.944,188.383 123.611,188.883 123.5,189.5C 119.846,189.942 116.179,190.276 112.5,190.5C 111.932,184.166 111.766,177.833 112,171.5C 117.168,167.838 122.668,164.838 128.5,162.5C 131.784,161.343 135.118,161.176 138.5,162C 143.464,163.24 148.464,164.573 153.5,166C 157.637,167.754 159.303,170.921 158.5,175.5C 156.5,175.5 154.5,175.5 152.5,175.5 Z"/></g>
<g><path style="opacity:1" fill="#82ba69" d="M 151.5,179.5 C 154.373,179.802 157.039,180.469 159.5,181.5C 159.665,185.182 159.499,188.848 159,192.5C 158.29,193.973 157.124,194.64 155.5,194.5C 151.462,194.042 147.462,193.376 143.5,192.5C 142.833,191.833 142.167,191.167 141.5,190.5C 143.857,190.337 146.19,190.503 148.5,191C 156.963,195.599 160.13,193.099 158,183.5C 155.435,182.53 153.268,181.196 151.5,179.5 Z"/></g>
<g><path style="opacity:1" fill="#251d15" d="M 199.5,178.5 C 197.732,180.079 195.899,181.746 194,183.5C 190.259,185.414 186.426,187.081 182.5,188.5C 183.29,187.206 184.29,186.039 185.5,185C 190.61,183.609 195.277,181.442 199.5,178.5 Z"/></g>
<g><path style="opacity:1" fill="#2c4c26" d="M 37.5,174.5 C 39.7412,179.9 41.4078,185.567 42.5,191.5C 39.4595,186.342 37.7928,180.675 37.5,174.5 Z"/></g>
<g><path style="opacity:1" fill="#af966d" d="M 181.5,171.5 C 181.196,172.15 180.863,172.817 180.5,173.5C 182.108,174.318 183.775,174.985 185.5,175.5C 192.325,171.346 199.659,170.346 207.5,172.5C 206.833,173.167 206.167,173.833 205.5,174.5C 200.716,173.839 196.382,174.839 192.5,177.5C 190.064,176.109 189.398,176.609 190.5,179C 187.151,181.353 184.151,184.02 181.5,187C 179.833,187.333 178.167,187.667 176.5,188C 175.748,188.671 175.414,189.504 175.5,190.5C 174.833,191.167 174.167,191.833 173.5,192.5C 172.391,192.557 171.391,192.89 170.5,193.5C 170.305,191.097 169.138,189.43 167,188.5C 165.33,190.4 163.83,192.4 162.5,194.5C 161.728,190.548 161.395,186.548 161.5,182.5C 164.799,183.376 168.132,183.543 171.5,183C 174.789,181.59 176.456,179.09 176.5,175.5C 177.296,173.164 178.962,171.831 181.5,171.5 Z"/></g>
<g><path style="opacity:1" fill="#221811" d="M 277.5,180.5 C 276.703,184.223 275.703,187.89 274.5,191.5C 273.539,193.265 273.205,195.265 273.5,197.5C 274.791,197.737 275.791,197.404 276.5,196.5C 277.167,196.5 277.5,196.167 277.5,195.5C 277.833,195.5 278.167,195.5 278.5,195.5C 278.586,196.496 278.252,197.329 277.5,198C 275.866,198.494 274.199,198.66 272.5,198.5C 272.793,194.563 272.46,190.73 271.5,187C 272.253,185.513 273.086,185.346 274,186.5C 275.044,184.285 275.71,181.952 276,179.5C 276.383,180.056 276.883,180.389 277.5,180.5 Z"/></g>
<g><path style="opacity:1" fill="#699f59" d="M 137.5,190.5 C 136.167,190.5 134.833,190.5 133.5,190.5C 130.375,189.521 127.042,189.187 123.5,189.5C 123.611,188.883 123.944,188.383 124.5,188C 128.202,187.319 131.869,187.485 135.5,188.5C 136.713,188.747 137.38,189.414 137.5,190.5 Z"/></g>
<g><path style="opacity:1" fill="#a0b870" d="M 159.5,181.5 C 160.167,181.5 160.833,181.5 161.5,181.5C 161.5,181.833 161.5,182.167 161.5,182.5C 161.395,186.548 161.728,190.548 162.5,194.5C 161.609,195.11 160.609,195.443 159.5,195.5C 157.901,195.768 156.568,195.434 155.5,194.5C 157.124,194.64 158.29,193.973 159,192.5C 159.499,188.848 159.665,185.182 159.5,181.5 Z"/></g>
<g><path style="opacity:1" fill="#1a3615" d="M 133.5,190.5 C 134.833,190.5 136.167,190.5 137.5,190.5C 138.167,191.167 138.833,191.833 139.5,192.5C 137.102,192.741 135.102,192.074 133.5,190.5 Z"/></g>
<g><path style="opacity:1" fill="#507745" d="M 137.5,190.5 C 138.833,190.5 140.167,190.5 141.5,190.5C 142.167,191.167 142.833,191.833 143.5,192.5C 142.167,192.5 140.833,192.5 139.5,192.5C 138.833,191.833 138.167,191.167 137.5,190.5 Z"/></g>
<g><path style="opacity:1" fill="#423628" d="M 181.5,188.5 C 179.582,191.138 176.915,192.805 173.5,193.5C 173.5,193.167 173.5,192.833 173.5,192.5C 174.167,191.833 174.833,191.167 175.5,190.5C 177.5,189.833 179.5,189.167 181.5,188.5 Z"/></g>
<g><path style="opacity:1" fill="#051202" d="M 125.5,191.5 C 127.948,190.527 130.615,190.194 133.5,190.5C 135.102,192.074 137.102,192.741 139.5,192.5C 140.833,192.5 142.167,192.5 143.5,192.5C 144.5,193.167 145.5,193.833 146.5,194.5C 144.801,194.62 143.135,194.954 141.5,195.5C 136.386,193.314 131.053,191.981 125.5,191.5 Z"/></g>
<g><path style="opacity:1" fill="#415d2f" d="M 143.5,192.5 C 147.462,193.376 151.462,194.042 155.5,194.5C 156.568,195.434 157.901,195.768 159.5,195.5C 161.948,196.473 164.615,196.806 167.5,196.5C 160.427,197.993 153.427,197.326 146.5,194.5C 145.5,193.833 144.5,193.167 143.5,192.5 Z"/></g>
<g><path style="opacity:1" fill="#846c53" d="M 279.5,190.5 C 278.962,192.117 278.629,193.784 278.5,195.5C 278.167,195.5 277.833,195.5 277.5,195.5C 277.12,193.302 277.787,191.635 279.5,190.5 Z"/></g>
<g><path style="opacity:1" fill="#354f2c" d="M 45.5,188.5 C 47.2655,191.123 47.9321,194.123 47.5,197.5C 46.209,197.737 45.209,197.404 44.5,196.5C 45.5862,196.38 46.2528,195.713 46.5,194.5C 45.8444,192.547 45.5111,190.547 45.5,188.5 Z"/></g>
<g><path style="opacity:1" fill="#cbb38c" d="M 170.5,193.5 C 169.167,194.167 168.167,195.167 167.5,196.5C 164.615,196.806 161.948,196.473 159.5,195.5C 160.609,195.443 161.609,195.11 162.5,194.5C 163.83,192.4 165.33,190.4 167,188.5C 169.138,189.43 170.305,191.097 170.5,193.5 Z"/></g>
<g><path style="opacity:1" fill="#6e614c" d="M 173.5,192.5 C 173.5,192.833 173.5,193.167 173.5,193.5C 171.483,194.529 169.483,195.529 167.5,196.5C 168.167,195.167 169.167,194.167 170.5,193.5C 171.391,192.89 172.391,192.557 173.5,192.5 Z"/></g>
<g><path style="opacity:1" fill="#8f795f" d="M 274.5,191.5 C 274.077,193.781 274.744,195.448 276.5,196.5C 275.791,197.404 274.791,197.737 273.5,197.5C 273.205,195.265 273.539,193.265 274.5,191.5 Z"/></g>
<g><path style="opacity:1" fill="#1c2918" d="M 42.5,193.5 C 43.9063,193.973 44.573,194.973 44.5,196.5C 45.209,197.404 46.209,197.737 47.5,197.5C 46.4324,198.434 45.099,198.768 43.5,198.5C 43.3713,196.784 43.038,195.117 42.5,193.5 Z"/></g>
<g><path style="opacity:1" fill="#1c3017" d="M 156.5,218.5 C 155.503,218.47 154.836,218.97 154.5,220C 154.989,221.138 155.322,222.305 155.5,223.5C 154.5,223.5 153.5,223.5 152.5,223.5C 152.5,221.833 152.5,220.167 152.5,218.5C 151.5,218.5 150.5,218.5 149.5,218.5C 149.5,222.167 149.5,225.833 149.5,229.5C 149.167,229.5 148.833,229.5 148.5,229.5C 148.5,226.5 148.5,223.5 148.5,220.5C 147.5,220.5 146.5,220.5 145.5,220.5C 146.711,218.437 145.877,217.437 143,217.5C 140.123,217.437 139.289,218.437 140.5,220.5C 137.827,220.316 137.16,219.149 138.5,217C 144.707,216.526 150.707,217.026 156.5,218.5 Z"/></g>
<g><path style="opacity:1" fill="#5c4d3c" d="M 191.5,218.5 C 191.917,217.876 192.584,217.543 193.5,217.5C 194.713,217.747 195.38,218.414 195.5,219.5C 194.292,218.766 192.959,218.433 191.5,218.5 Z"/></g>
<g><path style="opacity:1" fill="#4e5d49" d="M 113.5,217.5 C 113.804,218.15 114.137,218.817 114.5,219.5C 112.604,220.466 110.604,220.799 108.5,220.5C 107.178,220.33 106.011,220.663 105,221.5C 104.505,223.473 104.338,225.473 104.5,227.5C 102.292,220.022 105.292,216.689 113.5,217.5 Z"/></g>
<g><path style="opacity:1" fill="#122310" d="M 113.5,217.5 C 115.833,217.5 118.167,217.5 120.5,217.5C 120.5,220.167 120.5,222.833 120.5,225.5C 119.532,223.393 119.198,221.059 119.5,218.5C 118.5,218.5 117.5,218.5 116.5,218.5C 115.769,223.073 116.769,227.073 119.5,230.5C 117.883,229.962 116.216,229.629 114.5,229.5C 114.179,227.952 113.179,227.285 111.5,227.5C 112.568,226.566 113.901,226.232 115.5,226.5C 115.5,224.833 115.5,223.167 115.5,221.5C 113.167,221.5 110.833,221.5 108.5,221.5C 108.5,221.167 108.5,220.833 108.5,220.5C 110.604,220.799 112.604,220.466 114.5,219.5C 114.137,218.817 113.804,218.15 113.5,217.5 Z"/></g>
<g><path style="opacity:1" fill="#dcbb98" d="M 181.5,219.5 C 181.5,219.833 181.5,220.167 181.5,220.5C 180.681,223.305 180.181,226.305 180,229.5C 180.038,225.668 179.205,222.168 177.5,219C 179.066,218.235 180.399,218.402 181.5,219.5 Z"/></g>
<g><path style="opacity:1" fill="#4e3e2b" d="M 175.5,217.5 C 180.246,216.211 184.913,216.544 189.5,218.5C 189.167,218.5 188.833,218.5 188.5,218.5C 186.586,221.684 185.92,225.351 186.5,229.5C 186.119,225.881 185.119,222.548 183.5,219.5C 181.365,217.631 178.698,216.964 175.5,217.5 Z"/></g>
<g><path style="opacity:1" fill="#4f6845" d="M 152.5,223.5 C 152.5,225.833 152.5,228.167 152.5,230.5C 151.209,230.737 150.209,230.404 149.5,229.5C 149.5,225.833 149.5,222.167 149.5,218.5C 150.5,218.5 151.5,218.5 152.5,218.5C 152.5,220.167 152.5,221.833 152.5,223.5 Z"/></g>
<g><path style="opacity:1" fill="#010b01" d="M 108.5,221.5 C 110.833,221.5 113.167,221.5 115.5,221.5C 115.5,223.167 115.5,224.833 115.5,226.5C 113.901,226.232 112.568,226.566 111.5,227.5C 110.504,227.586 109.671,227.252 109,226.5C 108.506,224.866 108.34,223.199 108.5,221.5 Z"/></g>
<g><path style="opacity:1" fill="#2a1d11" d="M 168.5,217.5 C 166.719,220.928 165.385,224.594 164.5,228.5C 165.425,229.562 166.425,229.562 167.5,228.5C 167.179,230.048 166.179,230.715 164.5,230.5C 163.833,229.5 163.167,228.5 162.5,227.5C 162.5,226.833 162.5,226.167 162.5,225.5C 163.946,223.218 164.279,220.885 163.5,218.5C 162.478,218.855 161.811,219.522 161.5,220.5C 161.167,220.5 160.833,220.5 160.5,220.5C 160.414,219.504 160.748,218.671 161.5,218C 163.81,217.503 166.143,217.337 168.5,217.5 Z"/></g>
<g><path style="opacity:1" fill="#483527" d="M 181.5,219.5 C 182.167,219.5 182.833,219.5 183.5,219.5C 182.577,223.064 182.244,226.731 182.5,230.5C 182.167,230.5 181.833,230.5 181.5,230.5C 181.5,227.167 181.5,223.833 181.5,220.5C 181.5,220.167 181.5,219.833 181.5,219.5 Z"/></g>
<g><path style="opacity:1" fill="#cdac86" d="M 191.5,218.5 C 192.959,218.433 194.292,218.766 195.5,219.5C 194.908,223.306 193.575,226.639 191.5,229.5C 191.5,225.833 191.5,222.167 191.5,218.5 Z"/></g>
<g><path style="opacity:1" fill="#49381e" d="M 202.5,218.5 C 203.167,219.167 203.833,219.833 204.5,220.5C 204.401,223.237 204.735,225.904 205.5,228.5C 203.797,227.34 203.131,228.007 203.5,230.5C 201.801,230.66 200.134,230.494 198.5,230C 197.748,229.329 197.414,228.496 197.5,227.5C 198.82,228.942 200.486,229.608 202.5,229.5C 202.5,226.167 202.5,222.833 202.5,219.5C 202.5,219.167 202.5,218.833 202.5,218.5 Z"/></g>
<g><path style="opacity:1" fill="#5d7552" d="M 108.5,220.5 C 108.5,220.833 108.5,221.167 108.5,221.5C 106.623,222.659 106.123,224.326 107,226.5C 109.425,227.643 111.592,228.976 113.5,230.5C 109.888,231.076 106.888,230.076 104.5,227.5C 104.338,225.473 104.505,223.473 105,221.5C 106.011,220.663 107.178,220.33 108.5,220.5 Z"/></g>
<g><path style="opacity:1" fill="#000900" d="M 145.5,220.5 C 146.5,220.5 147.5,220.5 148.5,220.5C 148.5,223.5 148.5,226.5 148.5,229.5C 148.646,231.942 147.813,232.609 146,231.5C 145.501,227.848 145.335,224.182 145.5,220.5 Z"/></g>
<g><path style="opacity:1" fill="#34401b" d="M 157.5,220.5 C 158.472,223.098 159.472,223.098 160.5,220.5C 160.833,220.5 161.167,220.5 161.5,220.5C 161.5,221.167 161.5,221.833 161.5,222.5C 158.867,225.246 157.534,224.579 157.5,220.5 Z"/></g>
<g><path style="opacity:1" fill="#787360" d="M 162.5,225.5 C 161.596,224.791 161.263,223.791 161.5,222.5C 161.5,221.833 161.5,221.167 161.5,220.5C 161.811,219.522 162.478,218.855 163.5,218.5C 164.279,220.885 163.946,223.218 162.5,225.5 Z"/></g>
<g><path style="opacity:1" fill="#a18568" d="M 202.5,218.5 C 202.5,218.833 202.5,219.167 202.5,219.5C 200.744,220.552 200.077,222.219 200.5,224.5C 199.209,224.263 198.209,224.596 197.5,225.5C 196.85,225.196 196.183,224.863 195.5,224.5C 194.534,226.396 194.201,228.396 194.5,230.5C 193.209,230.737 192.209,230.404 191.5,229.5C 193.575,226.639 194.908,223.306 195.5,219.5C 198.146,225.127 199.48,224.794 199.5,218.5C 200.5,218.5 201.5,218.5 202.5,218.5 Z"/></g>
<g><path style="opacity:1" fill="#647e52" d="M 156.5,218.5 C 157.338,218.842 157.672,219.508 157.5,220.5C 157.534,224.579 158.867,225.246 161.5,222.5C 161.263,223.791 161.596,224.791 162.5,225.5C 162.5,226.167 162.5,226.833 162.5,227.5C 161.833,228.167 161.167,228.833 160.5,229.5C 159.5,229.5 158.5,229.5 157.5,229.5C 157.296,227.315 156.63,225.315 155.5,223.5C 155.322,222.305 154.989,221.138 154.5,220C 154.836,218.97 155.503,218.47 156.5,218.5 Z"/></g>
<g><path style="opacity:1" fill="#b39573" d="M 168.5,217.5 C 170.017,217.511 171.184,218.177 172,219.5C 172.991,221.808 173.824,224.141 174.5,226.5C 174.737,227.791 174.404,228.791 173.5,229.5C 171.621,228.659 169.621,228.325 167.5,228.5C 166.425,229.562 165.425,229.562 164.5,228.5C 165.385,224.594 166.719,220.928 168.5,217.5 Z"/></g>
<g><path style="opacity:1" fill="#e5c39b" d="M 168.5,219.5 C 172.31,220.754 172.31,221.754 168.5,222.5C 168.5,221.5 168.5,220.5 168.5,219.5 Z"/></g>
<g><path style="opacity:1" fill="#11250d" d="M 134.5,227.5 C 133.833,224.5 133.167,221.5 132.5,218.5C 131.833,218.5 131.167,218.5 130.5,218.5C 129.518,221.962 129.185,225.629 129.5,229.5C 128.167,229.833 126.833,230.167 125.5,230.5C 127.015,228.497 127.681,226.163 127.5,223.5C 127.444,221.36 126.777,219.694 125.5,218.5C 124.833,220.833 124.167,223.167 123.5,225.5C 123.5,222.833 123.5,220.167 123.5,217.5C 127.167,217.5 130.833,217.5 134.5,217.5C 134.5,220.833 134.5,224.167 134.5,227.5 Z"/></g>
<g><path style="opacity:1" fill="#644317" d="M 168.5,223.5 C 170.337,223.639 170.67,224.306 169.5,225.5C 168.702,225.043 168.369,224.376 168.5,223.5 Z"/></g>
<g><path style="opacity:1" fill="#65825a" d="M 141.5,229.5 C 141.5,226.5 141.5,223.5 141.5,220.5C 141.843,218.775 142.843,218.275 144.5,219C 144.171,222.892 143.171,226.392 141.5,229.5 Z"/></g>
<g><path style="opacity:1" fill="#d1b492" d="M 188.5,218.5 C 189.08,222.649 188.414,226.316 186.5,229.5C 185.92,225.351 186.586,221.684 188.5,218.5 Z"/></g>
<g><path style="opacity:1" fill="#445c3c" d="M 145.5,220.5 C 144.521,223.625 144.187,226.958 144.5,230.5C 143.5,230.5 142.5,230.5 141.5,230.5C 141.5,230.167 141.5,229.833 141.5,229.5C 143.171,226.392 144.171,222.892 144.5,219C 142.843,218.275 141.843,218.775 141.5,220.5C 141.167,220.5 140.833,220.5 140.5,220.5C 139.289,218.437 140.123,217.437 143,217.5C 145.877,217.437 146.711,218.437 145.5,220.5 Z"/></g>
<g><path style="opacity:1" fill="#ae9478" d="M 175.5,217.5 C 178.698,216.964 181.365,217.631 183.5,219.5C 182.833,219.5 182.167,219.5 181.5,219.5C 180.399,218.402 179.066,218.235 177.5,219C 179.205,222.168 180.038,225.668 180,229.5C 180.181,226.305 180.681,223.305 181.5,220.5C 181.5,223.833 181.5,227.167 181.5,230.5C 180.5,230.5 179.5,230.5 178.5,230.5C 178.813,226.958 178.479,223.625 177.5,220.5C 175.952,220.179 175.285,219.179 175.5,217.5 Z"/></g>
<g><path style="opacity:1" fill="#4f371e" d="M 197.5,225.5 C 197.5,226.167 197.5,226.833 197.5,227.5C 196.883,227.389 196.383,227.056 196,226.5C 195.79,228.058 195.29,229.391 194.5,230.5C 194.201,228.396 194.534,226.396 195.5,224.5C 196.183,224.863 196.85,225.196 197.5,225.5 Z"/></g>
<g><path style="opacity:1" fill="#d4b18c" d="M 202.5,219.5 C 202.5,222.833 202.5,226.167 202.5,229.5C 200.486,229.608 198.82,228.942 197.5,227.5C 197.5,226.833 197.5,226.167 197.5,225.5C 198.209,224.596 199.209,224.263 200.5,224.5C 200.077,222.219 200.744,220.552 202.5,219.5 Z"/></g>
<g><path style="opacity:1" fill="#2b4125" d="M 108.5,221.5 C 108.34,223.199 108.506,224.866 109,226.5C 109.671,227.252 110.504,227.586 111.5,227.5C 113.179,227.285 114.179,227.952 114.5,229.5C 114.5,230.167 114.167,230.5 113.5,230.5C 111.592,228.976 109.425,227.643 107,226.5C 106.123,224.326 106.623,222.659 108.5,221.5 Z"/></g>
<g><path style="opacity:1" fill="#142612" d="M 140.5,220.5 C 140.833,220.5 141.167,220.5 141.5,220.5C 141.5,223.5 141.5,226.5 141.5,229.5C 141.5,229.833 141.5,230.167 141.5,230.5C 137.684,231.62 134.017,231.62 130.5,230.5C 132.924,230.808 135.257,230.474 137.5,229.5C 136.398,228.824 135.398,228.158 134.5,227.5C 136.5,227.5 138.5,227.5 140.5,227.5C 140.5,225.167 140.5,222.833 140.5,220.5 Z"/></g>
<g><path style="opacity:1" fill="#92785a" d="M 188.5,218.5 C 188.833,218.5 189.167,218.5 189.5,218.5C 189.5,222.5 189.5,226.5 189.5,230.5C 188.5,230.5 187.5,230.5 186.5,230.5C 186.5,230.167 186.5,229.833 186.5,229.5C 188.414,226.316 189.08,222.649 188.5,218.5 Z"/></g>
<g><path style="opacity:1" fill="#5b7d53" d="M 120.5,225.5 C 120.5,225.833 120.5,226.167 120.5,226.5C 121.455,228.71 122.955,229.043 125,227.5C 125.498,224.518 125.665,221.518 125.5,218.5C 126.777,219.694 127.444,221.36 127.5,223.5C 127.681,226.163 127.015,228.497 125.5,230.5C 123.5,230.5 121.5,230.5 119.5,230.5C 116.769,227.073 115.769,223.073 116.5,218.5C 117.5,218.5 118.5,218.5 119.5,218.5C 119.198,221.059 119.532,223.393 120.5,225.5 Z"/></g>
<g><path style="opacity:1" fill="#2b4d24" d="M 125.5,218.5 C 125.665,221.518 125.498,224.518 125,227.5C 122.955,229.043 121.455,228.71 120.5,226.5C 121.791,226.737 122.791,226.404 123.5,225.5C 124.167,223.167 124.833,220.833 125.5,218.5 Z"/></g>
<g><path style="opacity:1" fill="#3c5635" d="M 130.5,218.5 C 130.5,222.167 130.5,225.833 130.5,229.5C 131.552,229.649 132.552,229.483 133.5,229C 132.544,225.606 132.211,222.106 132.5,218.5C 133.167,221.5 133.833,224.5 134.5,227.5C 135.398,228.158 136.398,228.824 137.5,229.5C 135.257,230.474 132.924,230.808 130.5,230.5C 129.833,230.5 129.5,230.167 129.5,229.5C 129.185,225.629 129.518,221.962 130.5,218.5 Z"/></g>
<g><path style="opacity:1" fill="#607e56" d="M 130.5,218.5 C 131.167,218.5 131.833,218.5 132.5,218.5C 132.211,222.106 132.544,225.606 133.5,229C 132.552,229.483 131.552,229.649 130.5,229.5C 130.5,225.833 130.5,222.167 130.5,218.5 Z"/></g>
<g><path style="opacity:1" fill="#755d45" d="M 174.5,226.5 C 175.782,227.708 175.782,229.042 174.5,230.5C 173.893,230.376 173.56,230.043 173.5,229.5C 174.404,228.791 174.737,227.791 174.5,226.5 Z"/></g>
<g><path style="opacity:1" fill="#7e745a" d="M 214.5,217.5 C 214.5,218.5 214.5,219.5 214.5,220.5C 208.496,219.164 206.496,221.164 208.5,226.5C 208.62,227.586 209.287,228.253 210.5,228.5C 212.833,228.167 213.167,227.167 211.5,225.5C 212.325,224.614 213.325,224.281 214.5,224.5C 215.807,226.223 215.807,228.057 214.5,230C 211.177,230.932 208.177,230.432 205.5,228.5C 204.735,225.904 204.401,223.237 204.5,220.5C 207.234,217.857 210.567,216.857 214.5,217.5 Z"/></g>
<g><path style="opacity:1" fill="#150c05" d="M 168.5,217.5 C 170.994,215.923 172.827,216.59 174,219.5C 174.278,218.584 174.778,217.918 175.5,217.5C 175.285,219.179 175.952,220.179 177.5,220.5C 178.276,228.155 178.942,235.822 179.5,243.5C 178.504,243.586 177.671,243.252 177,242.5C 176.814,239.964 176.314,237.631 175.5,235.5C 174.791,234.596 173.791,234.263 172.5,234.5C 169.236,233.676 165.902,233.342 162.5,233.5C 163.609,232.71 164.942,232.21 166.5,232C 165.584,231.722 164.918,231.222 164.5,230.5C 166.179,230.715 167.179,230.048 167.5,228.5C 169.621,228.325 171.621,228.659 173.5,229.5C 173.56,230.043 173.893,230.376 174.5,230.5C 175.782,229.042 175.782,227.708 174.5,226.5C 173.824,224.141 172.991,221.808 172,219.5C 171.184,218.177 170.017,217.511 168.5,217.5 Z"/></g>
<g><path style="opacity:1" fill="#100904" d="M 183.5,219.5 C 185.119,222.548 186.119,225.881 186.5,229.5C 186.5,229.833 186.5,230.167 186.5,230.5C 186.918,231.222 187.584,231.722 188.5,232C 186.567,232.251 184.734,232.751 183,233.5C 182.517,232.552 182.351,231.552 182.5,230.5C 182.244,226.731 182.577,223.064 183.5,219.5 Z"/></g>
<g><path style="opacity:1" fill="#0a1407" d="M 104.5,227.5 C 106.888,230.076 109.888,231.076 113.5,230.5C 114.167,230.5 114.5,230.167 114.5,229.5C 116.216,229.629 117.883,229.962 119.5,230.5C 120.6,231.558 121.934,232.392 123.5,233C 120.305,233.181 117.305,233.681 114.5,234.5C 113.539,236.265 113.205,238.265 113.5,240.5C 112.222,240.218 111.222,239.551 110.5,238.5C 109.662,238.158 109.328,237.492 109.5,236.5C 108.448,234.744 106.781,234.077 104.5,234.5C 104.5,232.167 104.5,229.833 104.5,227.5 Z"/></g>
<g><path style="opacity:1" fill="#060e03" d="M 129.5,229.5 C 129.5,230.167 129.833,230.5 130.5,230.5C 134.017,231.62 137.684,231.62 141.5,230.5C 142.167,231.5 142.833,232.5 143.5,233.5C 140.615,233.194 137.948,233.527 135.5,234.5C 134.5,234.5 133.5,234.5 132.5,234.5C 129.977,233.616 127.31,232.782 124.5,232C 125.056,231.617 125.389,231.117 125.5,230.5C 126.833,230.167 128.167,229.833 129.5,229.5 Z"/></g>
<g><path style="opacity:1" fill="#132111" d="M 145.5,220.5 C 145.335,224.182 145.501,227.848 146,231.5C 147.813,232.609 148.646,231.942 148.5,229.5C 148.833,229.5 149.167,229.5 149.5,229.5C 150.209,230.404 151.209,230.737 152.5,230.5C 152.5,228.167 152.5,225.833 152.5,223.5C 153.5,223.5 154.5,223.5 155.5,223.5C 156.63,225.315 157.296,227.315 157.5,229.5C 158.5,229.5 159.5,229.5 160.5,229.5C 160.53,230.497 160.03,231.164 159,231.5C 157.04,230.708 155.54,229.375 154.5,227.5C 153.526,229.743 153.192,232.076 153.5,234.5C 151.167,234.5 148.833,234.5 146.5,234.5C 146.5,238.5 146.5,242.5 146.5,246.5C 145.953,243.425 144.953,240.425 143.5,237.5C 142.271,240.199 142.271,242.865 143.5,245.5C 136.693,245.578 136.026,243.911 141.5,240.5C 140.311,239.571 138.978,239.238 137.5,239.5C 137.5,238.5 137.5,237.5 137.5,236.5C 139.5,236.5 141.5,236.5 143.5,236.5C 143.5,235.5 143.5,234.5 143.5,233.5C 142.833,232.5 142.167,231.5 141.5,230.5C 142.5,230.5 143.5,230.5 144.5,230.5C 144.187,226.958 144.521,223.625 145.5,220.5 Z"/></g>
<g><path style="opacity:1" fill="#171108" d="M 214.5,217.5 C 217.389,217.999 218.056,219.499 216.5,222C 218.512,225.048 218.179,228.048 215.5,231C 211.713,231.16 208.046,231.826 204.5,233C 205.737,233.232 206.737,233.732 207.5,234.5C 206.167,234.5 204.833,234.5 203.5,234.5C 203.5,237.5 203.5,240.5 203.5,243.5C 202.167,244.833 200.833,244.833 199.5,243.5C 199.5,240.5 199.5,237.5 199.5,234.5C 197.379,234.675 195.379,234.341 193.5,233.5C 193.557,232.391 193.89,231.391 194.5,230.5C 195.29,229.391 195.79,228.058 196,226.5C 196.383,227.056 196.883,227.389 197.5,227.5C 197.414,228.496 197.748,229.329 198.5,230C 200.134,230.494 201.801,230.66 203.5,230.5C 203.131,228.007 203.797,227.34 205.5,228.5C 208.177,230.432 211.177,230.932 214.5,230C 215.807,228.057 215.807,226.223 214.5,224.5C 211.874,222.994 209.874,223.661 208.5,226.5C 206.496,221.164 208.496,219.164 214.5,220.5C 214.5,219.5 214.5,218.5 214.5,217.5 Z"/></g>
<g><path style="opacity:1" fill="#382a1b" d="M 214.5,224.5 C 213.325,224.281 212.325,224.614 211.5,225.5C 213.167,227.167 212.833,228.167 210.5,228.5C 209.287,228.253 208.62,227.586 208.5,226.5C 209.874,223.661 211.874,222.994 214.5,224.5 Z"/></g>
<g><path style="opacity:1" fill="#2c2115" d="M 189.5,218.5 C 190.167,218.5 190.833,218.5 191.5,218.5C 191.5,222.167 191.5,225.833 191.5,229.5C 192.209,230.404 193.209,230.737 194.5,230.5C 193.89,231.391 193.557,232.391 193.5,233.5C 190.615,233.194 187.948,233.527 185.5,234.5C 185.782,235.778 186.449,236.778 187.5,237.5C 186.5,237.5 185.5,237.5 184.5,237.5C 184.663,239.857 184.497,242.19 184,244.5C 183.583,245.756 182.75,246.423 181.5,246.5C 183.254,242.742 183.921,238.742 183.5,234.5C 182.5,234.5 181.5,234.5 180.5,234.5C 180.81,237.713 180.477,240.713 179.5,243.5C 178.942,235.822 178.276,228.155 177.5,220.5C 178.479,223.625 178.813,226.958 178.5,230.5C 179.5,230.5 180.5,230.5 181.5,230.5C 181.833,230.5 182.167,230.5 182.5,230.5C 182.351,231.552 182.517,232.552 183,233.5C 184.734,232.751 186.567,232.251 188.5,232C 187.584,231.722 186.918,231.222 186.5,230.5C 187.5,230.5 188.5,230.5 189.5,230.5C 189.5,226.5 189.5,222.5 189.5,218.5 Z"/></g>
<g><path style="opacity:1" fill="#6b5841" d="M 185.5,234.5 C 187.948,233.527 190.615,233.194 193.5,233.5C 195.379,234.341 197.379,234.675 199.5,234.5C 199.5,237.5 199.5,240.5 199.5,243.5C 198.834,240.972 198.168,238.306 197.5,235.5C 196.679,238.446 196.679,241.446 197.5,244.5C 197.167,244.5 196.833,244.5 196.5,244.5C 195.532,242.393 195.198,240.059 195.5,237.5C 195.158,236.662 194.492,236.328 193.5,236.5C 191.365,234.631 188.698,233.964 185.5,234.5 Z"/></g>
<g><path style="opacity:1" fill="#061603" d="M 96.5,234.5 C 99.005,233.503 101.672,233.503 104.5,234.5C 103.699,236.042 103.366,237.708 103.5,239.5C 102.85,239.804 102.183,240.137 101.5,240.5C 100.83,238.709 100.163,237.042 99.5,235.5C 98.791,234.596 97.791,234.263 96.5,234.5 Z"/></g>
<g><path style="opacity:1" fill="#41573c" d="M 143.5,233.5 C 143.5,234.5 143.5,235.5 143.5,236.5C 141.5,236.5 139.5,236.5 137.5,236.5C 137.158,235.662 136.492,235.328 135.5,235.5C 135.5,235.167 135.5,234.833 135.5,234.5C 137.948,233.527 140.615,233.194 143.5,233.5 Z"/></g>
<g><path style="opacity:1" fill="#b39a78" d="M 185.5,234.5 C 188.698,233.964 191.365,234.631 193.5,236.5C 192.508,236.328 191.842,236.662 191.5,237.5C 190.5,237.5 189.5,237.5 188.5,237.5C 188.167,237.5 187.833,237.5 187.5,237.5C 186.449,236.778 185.782,235.778 185.5,234.5 Z"/></g>
<g><path style="opacity:1" fill="#2e4427" d="M 104.5,234.5 C 106.781,234.077 108.448,234.744 109.5,236.5C 106.167,234.833 104.167,235.833 103.5,239.5C 103.366,237.708 103.699,236.042 104.5,234.5 Z"/></g>
<g><path style="opacity:1" fill="#38301d" d="M 236.5,234.5 C 233.167,234.5 231.5,236.167 231.5,239.5C 229.188,237.633 226.521,237.133 223.5,238C 224.448,238.483 225.448,238.649 226.5,238.5C 226.5,239.833 226.5,241.167 226.5,242.5C 224.821,242.285 223.821,242.952 223.5,244.5C 223.508,241.977 223.341,239.311 223,236.5C 224.948,235.891 226.782,235.224 228.5,234.5C 231.352,233.742 234.019,233.742 236.5,234.5 Z"/></g>
<g><path style="opacity:1" fill="#2a4125" d="M 82.5,234.5 C 78.6509,234.019 76.6509,235.686 76.5,239.5C 75.1134,237.511 75.4468,235.678 77.5,234C 79.3869,233.22 81.0536,233.387 82.5,234.5 Z"/></g>
<g><path style="opacity:1" fill="#514830" d="M 237.5,234.5 C 237.833,234.5 238.167,234.5 238.5,234.5C 238.5,235.5 238.5,236.5 238.5,237.5C 236.901,237.232 235.568,237.566 234.5,238.5C 233.957,238.44 233.624,238.107 233.5,237.5C 235.332,236.943 236.665,235.943 237.5,234.5 Z"/></g>
<g><path style="opacity:1" fill="#1d2e19" d="M 119.5,230.5 C 121.5,230.5 123.5,230.5 125.5,230.5C 125.389,231.117 125.056,231.617 124.5,232C 127.31,232.782 129.977,233.616 132.5,234.5C 129.612,233.99 127.279,234.656 125.5,236.5C 124.022,237.448 123.022,238.781 122.5,240.5C 122.503,235.185 119.836,233.185 114.5,234.5C 117.305,233.681 120.305,233.181 123.5,233C 121.934,232.392 120.6,231.558 119.5,230.5 Z"/></g>
<g><path style="opacity:1" fill="#5e8152" d="M 132.5,234.5 C 131.833,235.5 131.167,236.5 130.5,237.5C 129.834,240.028 129.168,242.694 128.5,245.5C 127.833,242.358 127.166,239.358 126.5,236.5C 126.167,236.5 125.833,236.5 125.5,236.5C 127.279,234.656 129.612,233.99 132.5,234.5 Z"/></g>
<g><path style="opacity:1" fill="#537848" d="M 153.5,234.5 C 153.833,235.167 154.167,235.833 154.5,236.5C 153.481,239.872 153.481,243.206 154.5,246.5C 152.906,246.08 151.406,245.414 150,244.5C 148.923,245.429 147.756,246.096 146.5,246.5C 146.5,242.5 146.5,238.5 146.5,234.5C 148.833,234.5 151.167,234.5 153.5,234.5 Z"/></g>
<g><path style="opacity:1" fill="#180f05" d="M 231.5,239.5 C 233.132,240.832 234.799,242.165 236.5,243.5C 235.675,244.386 234.675,244.719 233.5,244.5C 230.387,244.151 227.054,244.151 223.5,244.5C 223.821,242.952 224.821,242.285 226.5,242.5C 226.5,241.167 226.5,239.833 226.5,238.5C 225.448,238.649 224.448,238.483 223.5,238C 226.521,237.133 229.188,237.633 231.5,239.5 Z"/></g>
<g><path style="opacity:1" fill="#7a6f54" d="M 236.5,234.5 C 236.833,234.5 237.167,234.5 237.5,234.5C 236.665,235.943 235.332,236.943 233.5,237.5C 233.624,238.107 233.957,238.44 234.5,238.5C 238.75,239.558 240.084,242.058 238.5,246C 236.527,246.495 234.527,246.662 232.5,246.5C 232.167,246.5 231.833,246.5 231.5,246.5C 231.5,245.167 232.167,244.5 233.5,244.5C 234.675,244.719 235.675,244.386 236.5,243.5C 234.799,242.165 233.132,240.832 231.5,239.5C 231.5,236.167 233.167,234.5 236.5,234.5 Z"/></g>
<g><path style="opacity:1" fill="#1b170f" d="M 238.5,234.5 C 240.295,238.591 241.962,242.924 243.5,247.5C 240.962,247.507 238.462,247.841 236,248.5C 234.301,248.613 233.134,247.947 232.5,246.5C 234.527,246.662 236.527,246.495 238.5,246C 240.084,242.058 238.75,239.558 234.5,238.5C 235.568,237.566 236.901,237.232 238.5,237.5C 238.5,236.5 238.5,235.5 238.5,234.5 Z"/></g>
<g><path style="opacity:1" fill="#152912" d="M 83.5,234.5 C 84.5,235.833 85.5,235.833 86.5,234.5C 86.5,238.5 86.5,242.5 86.5,246.5C 84.8439,247.146 83.1772,247.813 81.5,248.5C 75.5785,248.307 74.2452,245.973 77.5,241.5C 78.8333,241.5 80.1667,241.5 81.5,241.5C 81.5,242.5 81.5,243.5 81.5,244.5C 75.5727,244.367 75.2394,245.034 80.5,246.5C 84.226,246.202 85.3927,244.202 84,240.5C 82.4905,239.91 80.9905,239.244 79.5,238.5C 80.6888,237.571 82.0222,237.238 83.5,237.5C 83.5,236.5 83.5,235.5 83.5,234.5 Z"/></g>
<g><path style="opacity:1" fill="#192d16" d="M 132.5,234.5 C 133.5,234.5 134.5,234.5 135.5,234.5C 135.5,234.833 135.5,235.167 135.5,235.5C 134.359,238.64 134.192,241.973 135,245.5C 137.719,246.444 140.552,246.777 143.5,246.5C 140.696,247.638 137.696,247.805 134.5,247C 133.87,243.871 133.204,240.704 132.5,237.5C 131.893,237.624 131.56,237.957 131.5,238.5C 131.167,238.5 130.833,238.5 130.5,238.5C 130.5,238.167 130.5,237.833 130.5,237.5C 131.167,236.5 131.833,235.5 132.5,234.5 Z"/></g>
<g><path style="opacity:1" fill="#3f3217" d="M 169.5,236.5 C 168.391,237.29 167.058,237.79 165.5,238C 166.056,238.383 166.389,238.883 166.5,239.5C 165.5,239.5 164.5,239.5 163.5,239.5C 163.5,238.5 163.5,237.5 163.5,236.5C 165.5,236.5 167.5,236.5 169.5,236.5 Z"/></g>
<g><path style="opacity:1" fill="#76684f" d="M 228.5,234.5 C 226.782,235.224 224.948,235.891 223,236.5C 223.341,239.311 223.508,241.977 223.5,244.5C 224.609,245.29 225.942,245.79 227.5,246C 225.19,246.497 222.857,246.663 220.5,246.5C 220.167,246.5 219.833,246.5 219.5,246.5C 219.5,242.5 219.5,238.5 219.5,234.5C 222.604,233.225 225.604,233.225 228.5,234.5 Z"/></g>
<g><path style="opacity:1" fill="#4f6c47" d="M 82.5,234.5 C 82.8333,234.5 83.1667,234.5 83.5,234.5C 83.5,235.5 83.5,236.5 83.5,237.5C 82.0222,237.238 80.6888,237.571 79.5,238.5C 80.9905,239.244 82.4905,239.91 84,240.5C 85.3927,244.202 84.226,246.202 80.5,246.5C 75.2394,245.034 75.5727,244.367 81.5,244.5C 81.5,243.5 81.5,242.5 81.5,241.5C 80.1667,241.5 78.8333,241.5 77.5,241.5C 77.1667,240.833 76.8333,240.167 76.5,239.5C 76.6509,235.686 78.6509,234.019 82.5,234.5 Z"/></g>
<g><path style="opacity:1" fill="#5b814f" d="M 109.5,236.5 C 109.328,237.492 109.662,238.158 110.5,238.5C 111.363,240.895 111.363,243.229 110.5,245.5C 107.966,244.212 105.466,244.212 103,245.5C 102.51,243.455 102.677,241.455 103.5,239.5C 104.167,235.833 106.167,234.833 109.5,236.5 Z"/></g>
<g><path style="opacity:1" fill="#3d3024" d="M 161.5,234.5 C 161.5,233.833 161.833,233.5 162.5,233.5C 165.902,233.342 169.236,233.676 172.5,234.5C 172.5,237.167 172.5,239.833 172.5,242.5C 172.06,240.156 171.06,238.156 169.5,236.5C 167.365,234.631 164.698,233.964 161.5,234.5 Z"/></g>
<g><path style="opacity:1" fill="#231e12" d="M 193.5,236.5 C 194.492,236.328 195.158,236.662 195.5,237.5C 194.5,237.5 193.5,237.5 192.5,237.5C 192.5,240.833 192.5,244.167 192.5,247.5C 190.901,247.768 189.568,247.434 188.5,246.5C 189.5,246.5 190.5,246.5 191.5,246.5C 191.5,243.5 191.5,240.5 191.5,237.5C 191.842,236.662 192.508,236.328 193.5,236.5 Z"/></g>
<g><path style="opacity:1" fill="#605035" d="M 207.5,234.5 C 207.81,237.713 207.477,240.713 206.5,243.5C 206.813,240.753 206.48,238.086 205.5,235.5C 204.832,238.306 204.166,240.972 203.5,243.5C 203.5,240.5 203.5,237.5 203.5,234.5C 204.833,234.5 206.167,234.5 207.5,234.5 Z"/></g>
<g><path style="opacity:1" fill="#5f8250" d="M 114.5,234.5 C 119.836,233.185 122.503,235.185 122.5,240.5C 121.265,242.017 121.265,243.684 122.5,245.5C 121.386,246.776 120.386,246.776 119.5,245.5C 117.955,242.891 116.288,242.891 114.5,245.5C 113.548,243.955 113.215,242.288 113.5,240.5C 113.205,238.265 113.539,236.265 114.5,234.5 Z"/></g>
<g><path style="opacity:1" fill="#224316" d="M 116.5,236.5 C 117.5,236.5 118.5,236.5 119.5,236.5C 119.5,237.833 119.5,239.167 119.5,240.5C 118.5,240.5 117.5,240.5 116.5,240.5C 116.5,239.167 116.5,237.833 116.5,236.5 Z"/></g>
<g><path style="opacity:1" fill="#6d5e4b" d="M 172.5,234.5 C 173.791,234.263 174.791,234.596 175.5,235.5C 173.631,237.635 172.964,240.302 173.5,243.5C 172.833,243.5 172.5,243.167 172.5,242.5C 172.5,239.833 172.5,237.167 172.5,234.5 Z"/></g>
<g><path style="opacity:1" fill="#837656" d="M 209.5,234.5 C 212.119,234.232 214.619,234.565 217,235.5C 216.809,238.888 216.975,242.222 217.5,245.5C 217.043,246.298 216.376,246.631 215.5,246.5C 214.246,242.69 213.246,242.69 212.5,246.5C 211.5,246.5 210.5,246.5 209.5,246.5C 209.5,242.5 209.5,238.5 209.5,234.5 Z"/></g>
<g><path style="opacity:1" fill="#493d21" d="M 211.5,236.5 C 212.833,236.5 214.167,236.5 215.5,236.5C 215.778,238.346 215.111,239.68 213.5,240.5C 211.889,239.68 211.222,238.346 211.5,236.5 Z"/></g>
<g><path style="opacity:1" fill="#39582f" d="M 86.5,234.5 C 87.8734,234.343 89.2068,234.51 90.5,235C 91.2829,237.118 92.6162,238.618 94.5,239.5C 94.4827,241.028 93.816,241.528 92.5,241C 91.253,239.054 89.9197,237.22 88.5,235.5C 87.343,238.784 87.1764,242.118 88,245.5C 89.1668,241.667 90.3335,241.667 91.5,245.5C 89.8828,246.038 88.2161,246.371 86.5,246.5C 86.5,242.5 86.5,238.5 86.5,234.5 Z"/></g>
<g><path style="opacity:1" fill="#1e2c19" d="M 154.5,236.5 C 155.833,239.833 155.833,243.167 154.5,246.5C 153.481,243.206 153.481,239.872 154.5,236.5 Z"/></g>
<g><path style="opacity:1" fill="#2d2214" d="M 209.5,234.5 C 212.698,233.3 216.031,233.3 219.5,234.5C 219.5,238.5 219.5,242.5 219.5,246.5C 218.292,247.234 216.959,247.567 215.5,247.5C 215.5,247.167 215.5,246.833 215.5,246.5C 216.376,246.631 217.043,246.298 217.5,245.5C 216.975,242.222 216.809,238.888 217,235.5C 214.619,234.565 212.119,234.232 209.5,234.5 Z"/></g>
<g><path style="opacity:1" fill="#668b59" d="M 96.5,234.5 C 97.791,234.263 98.791,234.596 99.5,235.5C 99.8204,238.898 99.487,242.232 98.5,245.5C 97.8333,244.833 97.1667,244.167 96.5,243.5C 95.1502,244.95 93.4835,245.617 91.5,245.5C 90.3335,241.667 89.1668,241.667 88,245.5C 87.1764,242.118 87.343,238.784 88.5,235.5C 89.9197,237.22 91.253,239.054 92.5,241C 93.816,241.528 94.4827,241.028 94.5,239.5C 95.3092,237.972 95.9759,236.306 96.5,234.5 Z"/></g>
<g><path style="opacity:1" fill="#394f2d" d="M 126.5,236.5 C 127.166,239.358 127.833,242.358 128.5,245.5C 129.168,242.694 129.834,240.028 130.5,237.5C 130.5,237.833 130.5,238.167 130.5,238.5C 130.5,241.167 130.5,243.833 130.5,246.5C 129.167,246.5 127.833,246.5 126.5,246.5C 126.5,243.167 126.5,239.833 126.5,236.5 Z"/></g>
<g><path style="opacity:1" fill="#5b7752" d="M 135.5,235.5 C 136.492,235.328 137.158,235.662 137.5,236.5C 137.5,237.5 137.5,238.5 137.5,239.5C 138.978,239.238 140.311,239.571 141.5,240.5C 136.026,243.911 136.693,245.578 143.5,245.5C 143.5,245.833 143.5,246.167 143.5,246.5C 140.552,246.777 137.719,246.444 135,245.5C 134.192,241.973 134.359,238.64 135.5,235.5 Z"/></g>
<g><path style="opacity:1" fill="#83795f" d="M 188.5,237.5 C 189.5,237.5 190.5,237.5 191.5,237.5C 191.5,240.5 191.5,243.5 191.5,246.5C 190.5,246.5 189.5,246.5 188.5,246.5C 188.5,243.5 188.5,240.5 188.5,237.5 Z"/></g>
<g><path style="opacity:1" fill="#988968" d="M 199.5,243.5 C 200.833,244.833 202.167,244.833 203.5,243.5C 204.166,240.972 204.832,238.306 205.5,235.5C 206.48,238.086 206.813,240.753 206.5,243.5C 206.5,244.167 206.5,244.833 206.5,245.5C 204.874,245.938 203.207,246.272 201.5,246.5C 199.645,246.66 198.312,245.993 197.5,244.5C 196.679,241.446 196.679,238.446 197.5,235.5C 198.168,238.306 198.834,240.972 199.5,243.5 Z"/></g>
<g><path style="opacity:1" fill="#443d29" d="M 161.5,234.5 C 161.177,238.226 161.511,241.893 162.5,245.5C 163.176,244.398 163.842,243.398 164.5,242.5C 164.657,243.873 164.49,245.207 164,246.5C 163,247.833 162,247.833 161,246.5C 160.188,242.311 160.355,238.311 161.5,234.5 Z"/></g>
<g><path style="opacity:1" fill="#8e8263" d="M 181.5,246.5 C 178.763,246.599 176.096,246.265 173.5,245.5C 173.5,244.833 173.5,244.167 173.5,243.5C 172.964,240.302 173.631,237.635 175.5,235.5C 175.5,238.5 175.5,241.5 175.5,244.5C 177.099,244.768 178.432,244.434 179.5,243.5C 180.477,240.713 180.81,237.713 180.5,234.5C 181.5,234.5 182.5,234.5 183.5,234.5C 183.921,238.742 183.254,242.742 181.5,246.5 Z"/></g>
<g><path style="opacity:1" fill="#383015" d="M 175.5,235.5 C 176.314,237.631 176.814,239.964 177,242.5C 177.671,243.252 178.504,243.586 179.5,243.5C 178.432,244.434 177.099,244.768 175.5,244.5C 175.5,241.5 175.5,238.5 175.5,235.5 Z"/></g>
<g><path style="opacity:1" fill="#362813" d="M 207.5,234.5 C 208.167,234.5 208.833,234.5 209.5,234.5C 209.5,238.5 209.5,242.5 209.5,246.5C 208.609,245.89 207.609,245.557 206.5,245.5C 206.5,244.833 206.5,244.167 206.5,243.5C 207.477,240.713 207.81,237.713 207.5,234.5 Z"/></g>
<g><path style="opacity:1" fill="#81775b" d="M 161.5,234.5 C 164.698,233.964 167.365,234.631 169.5,236.5C 167.5,236.5 165.5,236.5 163.5,236.5C 163.5,237.5 163.5,238.5 163.5,239.5C 164.5,239.5 165.5,239.5 166.5,239.5C 167.043,239.56 167.376,239.893 167.5,240.5C 166.398,241.176 165.398,241.842 164.5,242.5C 163.842,243.398 163.176,244.398 162.5,245.5C 161.511,241.893 161.177,238.226 161.5,234.5 Z"/></g>
<g><path style="opacity:1" fill="#2a4422" d="M 99.5,235.5 C 100.163,237.042 100.83,238.709 101.5,240.5C 102.183,240.137 102.85,239.804 103.5,239.5C 102.677,241.455 102.51,243.455 103,245.5C 105.466,244.212 107.966,244.212 110.5,245.5C 111.363,243.229 111.363,240.895 110.5,238.5C 111.222,239.551 112.222,240.218 113.5,240.5C 113.215,242.288 113.548,243.955 114.5,245.5C 116.288,242.891 117.955,242.891 119.5,245.5C 117.906,245.92 116.406,246.586 115,247.5C 113.234,246.767 111.401,246.433 109.5,246.5C 101.767,246.811 94.1002,246.811 86.5,246.5C 88.2161,246.371 89.8828,246.038 91.5,245.5C 93.4835,245.617 95.1502,244.95 96.5,243.5C 97.1667,244.167 97.8333,244.833 98.5,245.5C 99.487,242.232 99.8204,238.898 99.5,235.5 Z"/></g>
<g><path style="opacity:1" fill="#0a1506" d="M 125.5,236.5 C 125.833,236.5 126.167,236.5 126.5,236.5C 126.5,239.833 126.5,243.167 126.5,246.5C 127.833,246.5 129.167,246.5 130.5,246.5C 130.5,243.833 130.5,241.167 130.5,238.5C 130.833,238.5 131.167,238.5 131.5,238.5C 131.5,241.5 131.5,244.5 131.5,247.5C 129.5,247.5 127.5,247.5 125.5,247.5C 125.388,243.661 124.721,243.661 123.5,247.5C 119.205,248.661 114.871,248.828 110.5,248C 109.944,247.617 109.611,247.117 109.5,246.5C 111.401,246.433 113.234,246.767 115,247.5C 116.406,246.586 117.906,245.92 119.5,245.5C 120.386,246.776 121.386,246.776 122.5,245.5C 121.265,243.684 121.265,242.017 122.5,240.5C 123.022,238.781 124.022,237.448 125.5,236.5 Z"/></g>
<g><path style="opacity:1" fill="#132410" d="M 154.5,246.5 C 151.833,247.833 149.167,247.833 146.5,246.5C 147.756,246.096 148.923,245.429 150,244.5C 151.406,245.414 152.906,246.08 154.5,246.5 Z"/></g>
<g><path style="opacity:1" fill="#444129" d="M 173.5,245.5 C 176.096,246.265 178.763,246.599 181.5,246.5C 180.551,247.152 179.385,247.486 178,247.5C 175.992,247.693 174.492,247.026 173.5,245.5 Z"/></g>
<g><path style="opacity:1" fill="#1a1409" d="M 215.5,246.5 C 215.5,246.833 215.5,247.167 215.5,247.5C 211.751,249.3 207.751,249.634 203.5,248.5C 201.5,248.167 199.5,247.833 197.5,247.5C 196.873,246.583 196.539,245.583 196.5,244.5C 196.833,244.5 197.167,244.5 197.5,244.5C 198.312,245.993 199.645,246.66 201.5,246.5C 203.207,246.272 204.874,245.938 206.5,245.5C 207.609,245.557 208.609,245.89 209.5,246.5C 210.5,246.5 211.5,246.5 212.5,246.5C 213.246,242.69 214.246,242.69 215.5,246.5 Z"/></g>
<g><path style="opacity:1" fill="#49432f" d="M 233.5,244.5 C 232.167,244.5 231.5,245.167 231.5,246.5C 227.699,247.715 224.033,247.715 220.5,246.5C 222.857,246.663 225.19,246.497 227.5,246C 225.942,245.79 224.609,245.29 223.5,244.5C 227.054,244.151 230.387,244.151 233.5,244.5 Z"/></g>
</svg>
